<svg xmlns="http://www.w3.org/2000/svg" viewBox="0 0 21 21"><defs><style>.cls-1{fill:none;}.cls-2{fill:#414141;}</style></defs><title>Bus</title><g id="Layer_2" data-name="Layer 2"><g id="NavBar"><rect class="cls-1" width="21" height="21"/><circle class="cls-2" cx="5.1" cy="15.24" r="1.9"/><path class="cls-2" d="M20.26,9.71l-1.9-4.27a2.66,2.66,0,0,0-2.43-1.58H2.84a2.2,2.2,0,0,0-2.2,2.2v8.27a.91.91,0,0,0,.91.91h.9a2.65,2.65,0,0,1,5.3,0h5.69a2.65,2.65,0,1,1,5.3,0h.71a.91.91,0,0,0,.91-.91V10.17A1.06,1.06,0,0,0,20.26,9.71Zm-14-.6a.92.92,0,0,1-.92.92H2.6a.92.92,0,0,1-.92-.92V6.39a.92.92,0,0,1,.92-.91H5.31a.92.92,0,0,1,.92.91Zm6.07,0a.92.92,0,0,1-.92.92H8.67a.92.92,0,0,1-.92-.92V6.39a.92.92,0,0,1,.92-.91h2.71a.92.92,0,0,1,.92.91Zm5.15.92H14.74a.92.92,0,0,1-.92-.92V6.39a.92.92,0,0,1,.92-.91h1.14a1.46,1.46,0,0,1,1.35.9l1.14,2.73A.92.92,0,0,1,17.45,10Z"/><circle class="cls-2" cx="16.09" cy="15.24" r="1.9"/></g></g></svg>