<svg xmlns="http://www.w3.org/2000/svg" viewBox="0 0 25 25"><defs><style>.cls-1{fill:#212121;}.cls-2{fill:none;}</style></defs><title>Asset 8</title><g id="Layer_2" data-name="Layer 2"><g id="Layer_1-2" data-name="Layer 1"><rect class="cls-1" y="22.34" width="25" height="2.07" rx="1.03" ry="1.03"/><circle class="cls-1" cx="17.81" cy="15.3" r="1.26"/><path class="cls-1" d="M10.45,11.18,4.31,15.6s-.89.58-.39.75l.87.3a2.78,2.78,0,0,0,2-.21l8.82-3.5s7.78,2.74,8.32,2-.83-3.43-3.56-4.4L5.18,5.07A1.32,1.32,0,0,1,4.58,4c-.1-.83-.36-2.48-.36-2.48A1.16,1.16,0,0,0,3,.61S2.82.48,2.67.94,1.14,5.25,1.14,5.25-.5,7.48,10.45,11.18Z"/><path class="cls-1" d="M10.06,5.73,14,7.08l-2.4-4.22s-.76-1.21-1.43-1.44l-.87-.3S8.81.85,9.1,2Z"/><rect class="cls-2" width="25" height="25"/></g></g></svg>