<svg xmlns="http://www.w3.org/2000/svg" xmlns:xlink="http://www.w3.org/1999/xlink" viewBox="0 0 25 25"><defs><style>.cls-1{fill:none;}.cls-2{fill:url(#linear-gradient);}</style><linearGradient id="linear-gradient" x1="1.34" y1="23.66" x2="23.66" y2="1.34" gradientUnits="userSpaceOnUse"><stop offset="0" stop-color="#484b9f"/><stop offset="1" stop-color="#5985c4"/></linearGradient></defs><title>Facebook</title><g id="Layer_2" data-name="Layer 2"><g id="Footer"><rect class="cls-1" width="25" height="25"/><path class="cls-2" d="M21.59.49H3.41A2.92,2.92,0,0,0,.49,3.41V21.59a2.92,2.92,0,0,0,2.92,2.92H21.59a2.92,2.92,0,0,0,2.92-2.92V3.41A2.92,2.92,0,0,0,21.59.49ZM19.36,9.07H18.22c-1.63,0-1.72.62-1.72,1.14v1.72h2.86l-.57,2.86H16.5v8.58H13.64V14.79H11.36V11.93h2.28V10.21c0-3,1.82-4,3.44-4a3.66,3.66,0,0,1,2.28.57Z"/></g></g></svg>