<svg xmlns="http://www.w3.org/2000/svg" xmlns:xlink="http://www.w3.org/1999/xlink" viewBox="0 0 67.21 67.21"><defs><style>.cls-1{fill:url(#linear-gradient);}.cls-2{fill:url(#linear-gradient-2);}</style><linearGradient id="linear-gradient" x1="12.95" y1="30.5" x2="23" y2="20.45" gradientUnits="userSpaceOnUse"><stop offset="0" stop-color="#484a9e"/><stop offset="1" stop-color="#5884c3"/></linearGradient><linearGradient id="linear-gradient-2" x1="8.82" y1="58.39" x2="58.39" y2="8.82" xlink:href="#linear-gradient"/></defs><title>FavIcon</title><g id="Layer_2" data-name="Layer 2"><g id="NavBar"><path class="cls-1" d="M24.88,22.88a6.3,6.3,0,0,1,.47,3.63,4.79,4.79,0,0,1-.28,1A5.88,5.88,0,0,1,23.44,30a2.75,2.75,0,0,1-1.81.77H13.25V20.16h8.38a2.82,2.82,0,0,1,1.81.75A5.39,5.39,0,0,1,24.88,22.88Z"/><path class="cls-2" d="M47.91,29l19.3,22.33V30.11A30.11,30.11,0,0,0,37.1,0H6.22A6.21,6.21,0,0,0,0,6.21V37.1A30.11,30.11,0,0,0,30.11,67.21H61A6.21,6.21,0,0,0,67.21,61L43.33,33.44l-4.68,4.49v7.74a2.88,2.88,0,0,1-.87,2.17,3.06,3.06,0,0,1-2.24.84,2.94,2.94,0,0,1-2.19-.87,2.88,2.88,0,0,1-.86-2.14V17.18A2.86,2.86,0,0,1,33.37,15a3.11,3.11,0,0,1,2.27-.87,2.88,2.88,0,0,1,3,3V30.59L54.42,15.06a3.38,3.38,0,0,1,2.42-1.13,2.44,2.44,0,0,1,1.92.93,3.06,3.06,0,0,1,.79,2,2.71,2.71,0,0,1-.89,1.93ZM30.05,30.78a11.14,11.14,0,0,1-3.6,4.1,8.23,8.23,0,0,1-4.73,1.52H13.25v9.41A3.09,3.09,0,0,1,12.47,48a2.63,2.63,0,0,1-2,.85,2.56,2.56,0,0,1-2-.87,3.12,3.12,0,0,1-.78-2.17V17a3,3,0,0,1,.85-2.17A2.86,2.86,0,0,1,10.62,14h11.1a8.23,8.23,0,0,1,4.73,1.52,11.15,11.15,0,0,1,3.6,4.08,12.09,12.09,0,0,1,0,11.18Z"/></g></g></svg>