<svg xmlns="http://www.w3.org/2000/svg" xmlns:xlink="http://www.w3.org/1999/xlink" viewBox="0 0 25 25"><defs><style>.cls-1{fill:url(#linear-gradient);}.cls-2{fill:none;}</style><linearGradient id="linear-gradient" x1="2.57" y1="22.43" x2="22.43" y2="2.57" gradientUnits="userSpaceOnUse"><stop offset="0" stop-color="#484b9f"/><stop offset="1" stop-color="#5985c4"/></linearGradient></defs><title>Instagram</title><g id="Layer_2" data-name="Layer 2"><g id="Footer"><path class="cls-1" d="M7.59.49a7.1,7.1,0,0,0-7.1,7.1v9.82a7.1,7.1,0,0,0,7.1,7.1h9.82a7.1,7.1,0,0,0,7.1-7.1V7.59a7.1,7.1,0,0,0-7.1-7.1ZM19.05,4.86A1.09,1.09,0,1,1,18,6,1.09,1.09,0,0,1,19.05,4.86ZM12.5,6.49a6,6,0,1,1-6,6A6,6,0,0,1,12.5,6.49Zm0,1.1a4.91,4.91,0,1,0,4.91,4.91A4.91,4.91,0,0,0,12.5,7.59Z"/><rect class="cls-2" width="25" height="25"/></g></g></svg>