<svg xmlns="http://www.w3.org/2000/svg" viewBox="0 0 25 25"><defs><style>.cls-1{fill:#212121;}.cls-2{fill:none;}</style></defs><title>Asset 7</title><g id="Layer_2" data-name="Layer 2"><g id="Layer_1-2" data-name="Layer 1"><circle class="cls-1" cx="7.93" cy="2.41" r="2.41"/><path class="cls-1" d="M16.7,17.28,18.63,24A1.42,1.42,0,0,0,20,25a1.34,1.34,0,0,0,1.36-1.75l-2-7.42a1.82,1.82,0,0,0-1.84-1.45H13.42l-1.82-7A2.52,2.52,0,0,0,8.8,6C6.71,6.3,6.9,8.65,6.9,8.65l1.79,6.8a2.89,2.89,0,0,0,2.71,1.83Z"/><path class="cls-1" d="M5.48,6.54l2,8.87a3.86,3.86,0,0,0,3.71,2.93h3.95a.91.91,0,0,1,1,1,.92.92,0,0,1-1,1H10.81a5.76,5.76,0,0,1-5.17-4.44L3.61,7s-.19-1,.7-1.18A1,1,0,0,1,5.48,6.54Z"/><rect class="cls-2" width="25" height="25"/></g></g></svg>