<svg xmlns="http://www.w3.org/2000/svg" viewBox="0 0 21 21"><defs><style>.cls-1{fill:#414141;}.cls-2{fill:none;}</style></defs><title>Kapal</title><g id="Layer_2" data-name="Layer 2"><g id="NavBar"><path class="cls-1" d="M3.67,18.26A3.93,3.93,0,0,1,1.4,19a2.26,2.26,0,0,1-.76-.07v1.37c.23,0,.46.07.76.07a3.07,3.07,0,0,0,2.27-.68A4,4,0,0,0,6,20.32a3.91,3.91,0,0,0,2.27-.68,4,4,0,0,0,2.28.68,4,4,0,0,0,2.28-.68,3.91,3.91,0,0,0,2.27.68,4,4,0,0,0,2.28-.68,3.91,3.91,0,0,0,2.27.68,2.18,2.18,0,0,0,.76-.16V18.81a2.45,2.45,0,0,1-.76.14,3.93,3.93,0,0,1-2.27-.69,4,4,0,0,1-2.28.69,3.93,3.93,0,0,1-2.27-.69,4.11,4.11,0,0,1-4.56,0A3.93,3.93,0,0,1,6,19,4,4,0,0,1,3.67,18.26Z"/><rect class="cls-1" x="9.74" y="0.68" width="1.48" height="3.03"/><rect class="cls-1" x="4.43" y="4.47" width="1.52" height="4.89" rx="0.76" ry="0.76"/><rect class="cls-1" x="4.43" y="4.47" width="3.79" height="1.52" rx="0.76" ry="0.76"/><rect class="cls-1" x="6.71" y="2.19" width="1.52" height="3.79" rx="0.76" ry="0.76"/><rect class="cls-1" x="6.71" y="2.19" width="3.79" height="1.52" rx="0.76" ry="0.76"/><rect class="cls-1" x="15.05" y="4.47" width="1.52" height="4.89" rx="0.76" ry="0.76" transform="translate(31.62 13.83) rotate(-180)"/><rect class="cls-1" x="12.78" y="4.47" width="3.79" height="1.52" rx="0.76" ry="0.76" transform="translate(29.34 10.45) rotate(180)"/><rect class="cls-1" x="12.78" y="2.19" width="1.52" height="3.79" rx="0.76" ry="0.76" transform="translate(27.07 8.18) rotate(180)"/><rect class="cls-1" x="10.5" y="2.19" width="3.79" height="1.52" rx="0.76" ry="0.76" transform="translate(24.79 5.9) rotate(180)"/><path class="cls-1" d="M17.56,9.09,10.5,6.74,3.67,9a1.92,1.92,0,0,0-1.41,2.36l1.41,3v2.42H17.33V14.33l1.28-2.66A1.81,1.81,0,0,0,17.56,9.09Zm-10.09,3c-.42,0-.76-.51-.76-1.14s.34-1.13.76-1.13.75.51.75,1.13S7.89,12.05,7.47,12.05Zm6.82,0c-.42,0-.76-.51-.76-1.14s.34-1.13.76-1.13.76.51.76,1.13S14.71,12.05,14.29,12.05Z"/><path class="cls-1" d="M3.67,16a3.91,3.91,0,0,1-2.27.68,2.26,2.26,0,0,1-.76-.07V18c.23,0,.46.07.76.07a3.06,3.06,0,0,0,2.27-.69A4,4,0,0,0,6,18.05a3.93,3.93,0,0,0,2.27-.69,4.11,4.11,0,0,0,4.56,0,3.93,3.93,0,0,0,2.27.69,4,4,0,0,0,2.28-.69,3.93,3.93,0,0,0,2.27.69,2.18,2.18,0,0,0,.76-.17V16.53a2.19,2.19,0,0,1-.76.14A3.91,3.91,0,0,1,17.33,16a4,4,0,0,1-2.28.68A3.91,3.91,0,0,1,12.78,16a4,4,0,0,1-2.28.68A4,4,0,0,1,8.22,16,3.91,3.91,0,0,1,6,16.67,4,4,0,0,1,3.67,16Z"/><rect class="cls-2" width="21" height="21"/></g></g></svg>