<svg xmlns="http://www.w3.org/2000/svg" viewBox="0 0 25 25"><defs><style>.cls-1{fill:#212121;}.cls-2{fill:none;}</style></defs><title>Asset 6</title><g id="Layer_2" data-name="Layer 2"><g id="Layer_1-2" data-name="Layer 1"><rect class="cls-1" x="6.2" y="15.38" width="13.97" height="3.81" rx="1.91" ry="1.91"/><rect class="cls-1" x="-4.24" y="7.69" width="19.94" height="3.81" rx="1.91" ry="1.91" transform="translate(13.16 1.26) rotate(72.53)"/><path class="cls-1" d="M19.77,0a3.82,3.82,0,0,0-3.83,3.83V6.52a3.83,3.83,0,0,0,7.66,0V3.83A3.82,3.82,0,0,0,19.77,0Zm0,3.77H17.1a2.67,2.67,0,1,1,5.34,0Z"/><path class="cls-1" d="M9,10.89l.85,2.73h5.55a.53.53,0,0,0,.55-.55c0-.55-.1-2.18-1.76-2.18Z"/><path class="cls-1" d="M18.67,23.37,17.51,20.1H16.35l1.21,3.61a.11.11,0,0,1-.11.15l-4.23.05L9,23.86a.11.11,0,0,1-.1-.15L10.1,20.1H8.94L7.78,23.37s-.22.77.17,1.12.43.51,1,.51h8.57c.55,0,.59-.16,1-.51S18.67,23.37,18.67,23.37Z"/><rect class="cls-2" width="25" height="25"/></g></g></svg>