<svg xmlns="http://www.w3.org/2000/svg" viewBox="0 0 21 21"><defs><style>.cls-1{fill:#414141;}.cls-2{fill:none;}</style></defs><title>Kereta</title><g id="Layer_2" data-name="Layer 2"><g id="NavBar"><rect class="cls-1" x="3.56" y="17.85" width="5.1" height="1.29" rx="0.64" ry="0.64" transform="translate(-10.46 8.25) rotate(-40)"/><rect class="cls-1" x="12.34" y="17.85" width="5.1" height="1.29" rx="0.64" ry="0.64" transform="translate(14.41 42.22) rotate(-140)"/><path class="cls-1" d="M14.17,2h-.86a.91.91,0,0,0,.1-.4,1,1,0,0,0-2,0,.9.9,0,0,0,.09.4H9.46a.9.9,0,0,0,.09-.4,1,1,0,0,0-2,0,.91.91,0,0,0,.1.4H6.83A2.42,2.42,0,0,0,4.41,4.44V15.65a2.42,2.42,0,0,0,2.42,2.42h7.34a2.42,2.42,0,0,0,2.42-2.42V4.44A2.42,2.42,0,0,0,14.17,2Zm-6,1.18a.41.41,0,0,1,.41-.41h3.76a.41.41,0,0,1,.41.41v.71a.41.41,0,0,1-.41.41H8.62a.41.41,0,0,1-.41-.41ZM5.92,6a.87.87,0,0,1,.87-.87h7.42a.87.87,0,0,1,.87.87V8.79a.87.87,0,0,1-.87.87H6.79a.87.87,0,0,1-.87-.87ZM7.06,16.61a1.22,1.22,0,1,1,1.22-1.22A1.22,1.22,0,0,1,7.06,16.61Zm6.88,0a1.22,1.22,0,1,1,1.22-1.22A1.22,1.22,0,0,1,13.94,16.61Z"/><rect class="cls-2" width="21" height="21"/></g></g></svg>