<svg xmlns="http://www.w3.org/2000/svg" viewBox="0 0 25 25"><defs><style>.cls-1{fill:#212121;}.cls-2{fill:none;}</style></defs><title>Asset 9</title><g id="Layer_2" data-name="Layer 2"><g id="Layer_1-2" data-name="Layer 1"><path class="cls-1" d="M6.73,0a.9.9,0,0,0-1,1V3.85a.91.91,0,0,0,1,1,.91.91,0,0,0,1-1V1A.9.9,0,0,0,6.73,0Z"/><path class="cls-1" d="M18.27,0a.9.9,0,0,0-1,1V3.85a1,1,0,1,0,1.92,0V1A.9.9,0,0,0,18.27,0Z"/><path class="cls-1" d="M22.12,1.92H20.19V3.85a1.92,1.92,0,0,1-3.84,0V1.92H8.65V3.85a1.92,1.92,0,0,1-3.84,0V1.92H2.88A2.83,2.83,0,0,0,0,4.81V22.12A2.83,2.83,0,0,0,2.88,25H22.12A2.83,2.83,0,0,0,25,22.12V4.81A2.83,2.83,0,0,0,22.12,1.92Zm1,20.2a.91.91,0,0,1-1,1H2.88a.91.91,0,0,1-1-1V8.65H23.08Z"/><path class="cls-1" d="M15.76,10.64c-.27,0-.81,0-.81,1v1.83H10.14a.91.91,0,0,0-1,1v2.88a.9.9,0,0,0,1,1H15V20.1c0,1.26,1,1,1,1l5.68-5.2-5.68-5.2Z"/><rect class="cls-2" width="25" height="25"/></g></g></svg>