<svg xmlns="http://www.w3.org/2000/svg" viewBox="0 0 21 21"><defs><style>.cls-1{fill:none;}.cls-2{fill:#414141;}</style></defs><title>Pesawat</title><g id="Layer_2" data-name="Layer 2"><g id="NavBar"><rect class="cls-1" width="21" height="21"/><path class="cls-2" d="M15.31,2.36S18.84-.25,20,1s-1.4,4.73-1.4,4.73L16.82,7.51,13.49,4.18Z"/><rect class="cls-2" x="2.82" y="7.84" width="15.97" height="4.73" transform="translate(-4.05 10.63) rotate(-45)"/><polygon class="cls-2" points="12.34 11.81 15.35 19.94 16.77 18.57 16.07 8.06 12.34 11.81"/><path class="cls-2" d="M16.1,10.94l-2.54,2.54L15.08,15l2-2c.78-.79.95-1.63.53-2.05h0A1.09,1.09,0,0,0,16.1,10.94Z"/><polygon class="cls-2" points="9.2 8.67 1.07 5.67 2.44 4.24 12.96 4.94 9.2 8.67"/><path class="cls-2" d="M10.07,4.91,7.53,7.45,6,5.93l2-2c.78-.78,1.62-.94,2-.53h0A1.07,1.07,0,0,1,10.07,4.91Z"/><polygon class="cls-2" points="5.22 15.7 6.37 20.36 8 18.75 8 14.72 5.22 15.7"/><polygon class="cls-2" points="5.3 15.78 0.64 14.63 2.25 13 6.28 13 5.3 15.78"/></g></g></svg>