<svg xmlns="http://www.w3.org/2000/svg" viewBox="0 0 25 25"><defs><style>.cls-1{fill:#212121;}.cls-2{fill:none;}</style></defs><title>Asset 5</title><g id="Layer_2" data-name="Layer 2"><g id="Layer_1-2" data-name="Layer 1"><path class="cls-1" d="M18.27,0a.9.9,0,0,1,1,1V3.85a1,1,0,1,1-1.92,0V1A.9.9,0,0,1,18.27,0Z"/><path class="cls-1" d="M6.73,0a.9.9,0,0,1,1,1V3.85a.91.91,0,0,1-1,1,.91.91,0,0,1-1-1V1A.9.9,0,0,1,6.73,0Z"/><path class="cls-1" d="M2.88,1.92H4.81V3.85a1.92,1.92,0,0,0,3.84,0V1.92h7.7V3.85a1.92,1.92,0,0,0,3.84,0V1.92h1.93A2.83,2.83,0,0,1,25,4.81V22.12A2.83,2.83,0,0,1,22.12,25H2.88A2.83,2.83,0,0,1,0,22.12V4.81A2.83,2.83,0,0,1,2.88,1.92Zm-1,20.2a.91.91,0,0,0,1,1H22.12a.91.91,0,0,0,1-1V8.65H1.92Z"/><path class="cls-1" d="M9.24,10.64c.27,0,.81,0,.81,1v1.83h4.81a.91.91,0,0,1,1,1v2.88a.9.9,0,0,1-1,1H10.05V20.1c0,1.26-1,1-1,1l-5.68-5.2,5.68-5.2Z"/><rect class="cls-2" width="25" height="25"/></g></g></svg>