<svg xmlns="http://www.w3.org/2000/svg" viewBox="0 0 28.35 28.35"><defs><style>.cls-1{fill:#5b65ae;}</style></defs><title>Asset 11</title><g id="Layer_2" data-name="Layer 2"><g id="Layer_1-2" data-name="Layer 1"><rect class="cls-1" x="2.85" y="14.77" width="22.65" height="1.87" rx="0.84" ry="0.84"/><rect class="cls-1" x="1.74" y="17.81" width="11.32" height="1.87" rx="0.84" ry="0.84" transform="translate(13.78 -0.38) rotate(40)"/><rect class="cls-1" x="2.85" y="11.71" width="22.65" height="1.87" rx="0.84" ry="0.84" transform="translate(28.35 25.29) rotate(-180)"/><rect class="cls-1" x="15.28" y="8.67" width="11.32" height="1.87" rx="0.84" ry="0.84" transform="translate(30.81 30.43) rotate(-140)"/><path class="cls-1" d="M14.17,28.35A14.18,14.18,0,1,1,28.35,14.17,14.19,14.19,0,0,1,14.17,28.35Zm0-26.91A12.73,12.73,0,1,0,26.9,14.17,12.74,12.74,0,0,0,14.17,1.44Z"/></g></g></svg>