<svg xmlns="http://www.w3.org/2000/svg" viewBox="0 0 21 21"><defs><style>.cls-1{fill:#414141;}.cls-2{fill:none;}</style></defs><title>Travel</title><g id="Layer_2" data-name="Layer 2"><g id="NavBar"><path class="cls-1" d="M19.4,10H1.59a1,1,0,0,0-.95,1v5a.94.94,0,0,0,1,.95H19.4a1,1,0,0,0,1-.95V11A1,1,0,0,0,19.4,10ZM4.09,15.21A1.76,1.76,0,0,1,3.15,12a1.78,1.78,0,0,1,.94-.27,1.76,1.76,0,1,1,0,3.51Zm12.88,0a1.76,1.76,0,1,1,0-3.51,1.64,1.64,0,0,1,.76.18,1.76,1.76,0,0,1,.82,2.34h0A1.77,1.77,0,0,1,17,15.21Z"/><path class="cls-1" d="M15.43,16.6h4a0,0,0,0,1,0,0v1.6a.67.67,0,0,1-.67.67H16.1a.67.67,0,0,1-.67-.67V16.6a0,0,0,0,1,0,0Z"/><path class="cls-1" d="M1.58,16.6h4a0,0,0,0,1,0,0v1.6a.67.67,0,0,1-.67.67H2.25a.67.67,0,0,1-.67-.67V16.6A0,0,0,0,1,1.58,16.6Z"/><path class="cls-1" d="M5.9,2.12H15a2,2,0,0,1,2,2v0a0,0,0,0,1,0,0h-13a0,0,0,0,1,0,0v0A2,2,0,0,1,5.9,2.12Z"/><path class="cls-1" d="M18.65,14.54l-.1-.31h0a1.76,1.76,0,0,0-.82-2.34L17.08,10,15,4.09l-.65-1.86A2,2,0,0,1,15,2.12h.22l.17,0a1.71,1.71,0,0,1,.3.09.56.56,0,0,1,.16.07.89.89,0,0,1,.25.14l.13.09s0,0,0,0l.12.11a2,2,0,0,1,.49.75L19.17,10l.7,2A2,2,0,0,1,18.65,14.54Z"/><path class="cls-1" d="M6.55,2.23,5.9,4.09,3.83,10l-.68,2a1.75,1.75,0,0,0-.81,1.49,1.73,1.73,0,0,0,.09.56l-.17.52A2,2,0,0,1,1,12l.7-2L4,3.51l0-.07a.87.87,0,0,1,.07-.17A2.09,2.09,0,0,1,4.27,3l.09-.13,0,0,.15-.16a1.12,1.12,0,0,1,.24-.19A1.35,1.35,0,0,1,5,2.33l.24-.11a2.25,2.25,0,0,1,.64-.1A2.15,2.15,0,0,1,6.55,2.23Z"/><rect class="cls-2" width="21" height="21"/></g></g></svg>