<svg xmlns="http://www.w3.org/2000/svg" viewBox="0 0 25 25"><defs><style>.cls-1{fill:#212121;}.cls-2{fill:none;}</style></defs><title>Asset 10</title><g id="Layer_2" data-name="Layer 2"><g id="Layer_1-2" data-name="Layer 1"><rect class="cls-1" y="21.77" width="24.9" height="2.06" rx="1.03" ry="1.03"/><path class="cls-1" d="M12.74,9.06,11.4,16.48s-.25,1,.24.8l.82-.38a2.76,2.76,0,0,0,1.3-1.54l3.91-8.61S25.14,3.34,25,2.42s-3-1.88-5.59-.69L4.74,8.32A1.33,1.33,0,0,1,3.57,8c-.65-.53-2-1.54-2-1.54a1.14,1.14,0,0,0-1.47.19s-.24,0,0,.48L2,11.24S2.34,14,12.74,9.06Z"/><path class="cls-1" d="M8.69,5.43l3.75-1.75L7.8,2.31a4.17,4.17,0,0,0-2,0L5,2.66s-.53.13.47.75Z"/><rect class="cls-2" width="25" height="25"/></g></g></svg>