<svg xmlns="http://www.w3.org/2000/svg" xmlns:xlink="http://www.w3.org/1999/xlink" viewBox="0 0 25 25"><defs><style>.cls-1{fill:url(#linear-gradient);}.cls-2{fill:none;}</style><linearGradient id="linear-gradient" x1="0.72" y1="20.27" x2="20.87" y2="0.12" gradientUnits="userSpaceOnUse"><stop offset="0" stop-color="#484b9f"/><stop offset="1" stop-color="#5985c4"/></linearGradient></defs><title>Twitter</title><g id="Layer_2" data-name="Layer 2"><g id="Footer"><g id="surface1"><path class="cls-1" d="M24.51,5.05a9.88,9.88,0,0,1-2.83.78A5,5,0,0,0,23.85,3.1a10.22,10.22,0,0,1-3.13,1.2,4.93,4.93,0,0,0-8.53,3.37,5.2,5.2,0,0,0,.13,1.12A14,14,0,0,1,2.16,3.64a5,5,0,0,0-.67,2.48,4.91,4.91,0,0,0,2.2,4.1A4.88,4.88,0,0,1,1.45,9.6v.07a4.93,4.93,0,0,0,4,4.83,5.09,5.09,0,0,1-1.3.17,4.73,4.73,0,0,1-.93-.09A4.94,4.94,0,0,0,7.78,18a9.88,9.88,0,0,1-6.12,2.11,11.14,11.14,0,0,1-1.17-.07A13.92,13.92,0,0,0,8,22.26a13.93,13.93,0,0,0,14-14c0-.21,0-.43,0-.64A9.78,9.78,0,0,0,24.51,5.05Z"/></g><rect class="cls-2" width="25" height="25"/></g></g></svg>