<svg xmlns="http://www.w3.org/2000/svg" xmlns:xlink="http://www.w3.org/1999/xlink" viewBox="0 0 1366 633.05"><defs><style>.cls-1,.cls-32{fill:#5985c4;}.cls-1,.cls-2,.cls-21,.cls-6{opacity:0.1;}.cls-1,.cls-10,.cls-15,.cls-2,.cls-21,.cls-22,.cls-29{isolation:isolate;}.cls-3{fill:url(#linear-gradient);}.cls-4{fill:#ffb9b9;}.cls-5{fill:#b96b6b;}.cls-7{fill:#464a5f;}.cls-8{fill:#9c9ca1;}.cls-9{fill:#939498;}.cls-10{opacity:0.05;}.cls-11{fill:#c7c0d9;}.cls-12{fill:#caa8b1;}.cls-13,.cls-21,.cls-22{fill:none;}.cls-14{fill:#cbcdda;}.cls-15{opacity:0.03;}.cls-16{fill:#4c4c78;}.cls-17,.cls-29{fill:#fff;}.cls-18{fill:#767d9f;}.cls-19{fill:#6e6d84;}.cls-20{fill:#605b89;}.cls-21{stroke:#000;}.cls-21,.cls-22{stroke-miterlimit:10;}.cls-22{stroke:#605b89;opacity:0.2;}.cls-23{fill:url(#linear-gradient-2);}.cls-24{fill:#f78181;}.cls-25{fill:#8189a6;}.cls-26{fill:#f9d048;}.cls-27{fill:#cdd0db;}.cls-28{fill:#9da7c0;}.cls-29{opacity:0.3;}.cls-30{fill:url(#linear-gradient-3);}.cls-31{fill:#333;}.cls-33{fill:#f0e4e4;}</style><linearGradient id="linear-gradient" x1="14216.86" y1="13216.7" x2="14216.86" y2="12846.39" gradientTransform="matrix(-1, -0.04, 0.04, -1, 14866.26, 13980.87)" gradientUnits="userSpaceOnUse"><stop offset="0" stop-color="gray" stop-opacity="0.25"/><stop offset="0.54" stop-color="gray" stop-opacity="0.12"/><stop offset="1" stop-color="gray" stop-opacity="0.1"/></linearGradient><linearGradient id="linear-gradient-2" x1="1064.9" y1="13131.78" x2="1064.9" y2="13483.43" gradientTransform="matrix(1, 0, 0, -1, -60, 13684.43)" xlink:href="#linear-gradient"/><linearGradient id="linear-gradient-3" x1="1290.39" y1="13092.62" x2="1290.39" y2="13222.55" gradientTransform="matrix(1, 0, 0, -1, -196.89, 13635.48)" xlink:href="#linear-gradient"/></defs><title>BGBandara</title><g id="Layer_2" data-name="Layer 2"><g id="Illustration"><path class="cls-1" d="M1366,38.16V208.44a283.6,283.6,0,0,1-21.48,62.33c-.4.8-.8,1.61-1.21,2.41a222.74,222.74,0,0,1-27.8,42.87c-5.88,7.18-12.33,13.94-20,18.78-10.72,6.85-23.21,9.67-35.54,11.93-5.39,1-10.8,1.9-16.23,2.8l-1.79.3q-6.09,1-12.18,2h0l-.16,0-8.29,1.34-1.94.32c-.31,0-.61.09-.91.15-3.62.59-7.21,1.23-10.85,1.87l-.43.08c-1.8.33-3.61.66-5.41,1-7.68,1.47-15.31,3.1-22.84,5l-1.19.31h0c-6.6,1.7-13.12,3.63-19.53,5.86-.12,0-.24.08-.36.12l0,0-.12,0-1.58.56a177.69,177.69,0,0,0-28.67,13.1c-15.32,8.78-29.1,20.19-43.08,31.28l-1.8,1.42-2.72,2.14,0,0-.56.44-1.23,1c-4.46,3.46-9,6.84-13.58,10.06A154.75,154.75,0,0,1,1036,444.1c-.93.4-1.87.79-2.81,1.16l-.55.22c-3.38,1.3-6.84,2.4-10.34,3.37a75,75,0,0,1-10.72,2.14h-.06a75,75,0,0,1-18.87-.05,78.81,78.81,0,0,1-7.9-1.57l-.39-.1c-8.14-2-16.1-5.08-24.2-7.25l-1.17-.3c-2.62-.67-5.26-1.25-7.93-1.66-29.17-4.51-57.45,10.07-84.85,21.52-6.74,2.81-13.49,5.46-20.31,7.86l-.08,0c-4.48,1.61-9,3.21-13.62,4.65l-.08,0a434.79,434.79,0,0,1-86,18.37,197.42,197.42,0,0,1-36.5,1,130.57,130.57,0,0,1-13.7-1.78c-15.31-2.9-29.74-9-41.26-20.14-9.51-9.11-16.28-21-21.43-33.52a174.37,174.37,0,0,1-7.5-108.71c4.92-19,13.06-37.15,16.68-56.33.16-.8.24-1.61.4-2.42.49-2.9.89-5.8,1.13-8.78,1.86-23.48-5.21-46.31-10.67-69.22,0,0,0-.11,0-.16-.16-.76-.38-1.51-.54-2.26l0-.16c-.56-2.58-1.13-5.08-1.69-7.65-5.16-24.26-6.61-50.29-2-74.54.17-.81.33-1.62.49-2.42a122.07,122.07,0,0,1,16.84-42.07c8.54-13.13,19.74-24,31.67-33.52a218.06,218.06,0,0,1,18-13c4.51-2.9,9-5.64,13.7-8.22Q718,3.91,726.65,0H924.29l1.52.49.11,0h0c8.83,2.88,17.58,5.77,26.32,8.66l.11,0h0C956.26,10.5,960.1,11.78,964,13c19.18,6,38.68,11.52,58.34,15.63,4.59,1,9.11,1.86,13.7,2.66a328.89,328.89,0,0,0,47.8,4.92h.07c6.17.16,12.44.16,18.61-.16h.08c3.14-.16,6.29-.41,9.43-.65,32.56-2.82,64.06-12.17,95.57-21,4.59-1.29,9.11-2.58,13.7-3.79,6-1.61,12-3.14,18-4.59,37.55-9,71-3.87,105.81,14.75C1353.06,25,1361,30.06,1365.88,38Z"/><path class="cls-1" d="M1221.31,108H1366v-2.42H1221.31V10.64c-4.59,1.21-9.11,2.5-13.7,3.79v91.14H1040l-.4-.48,5.49-6,57.44-63,.08-.08c-6.2.32-12.49.32-18.69.16l-.07.08-47.8,52.46V31.27c-4.59-.8-9.11-1.69-13.7-2.66V86.07l-70-76.84h0l0,0c-8.78-2.9-17.56-5.8-26.43-8.7l0,0h0l83.67,91.88.07.08,4.51,4.94,7,7.66-.4.48H845.87V0h-13.7V105.49H709.69V8.71C705,11.29,700.5,14,696,16.93v88.56H629.43c-.16.81-.32,1.61-.49,2.42h67v82.27H632.65c.16.81.4,1.61.57,2.42H696v78.17H642.8c-.16.8-.24,1.61-.4,2.41H696V491.72a130.91,130.91,0,0,0,13.7,1.78V273.18H832.17v201c4.6-1.45,9.19-3.06,13.7-4.68V273.18h176.48V448.77c3.47-1,6.9-2,10.25-3.33l.56-.22c1-.39,1.93-.78,2.89-1.2V273.18h171.64v82.28c3.61-.64,7.17-1.27,10.76-1.86l.91-.15,2-.33V273.18h122c.41-.8.81-1.61,1.21-2.41H1221.39V192.6H1366v-2.42H1221.31Zm-511.62,0v82.19H832.17V108Zm136.18,0v82.19h176.48V108Zm192.6,0-2.42,2.17v80h171.64V108Zm172.88,174.32c-.22-.23-.42-.47-.62-.72-.06-.08-.13-.16-.18-.24a6.48,6.48,0,0,1-.53-.73c-.2-.28-.38-.57-.56-.87s-.34-.62-.5-.94l0-.05-.3-.55c-.32-.56-.64-1.15-.94-1.74v15.26l7.2-1C1213.93,287.38,1212.64,283.6,1211.35,282.31Zm0,0c-.22-.23-.42-.47-.62-.72-.06-.08-.13-.16-.18-.24a6.48,6.48,0,0,1-.53-.73c-.2-.28-.38-.57-.56-.87s-.34-.62-.5-.94l0-.05-.3-.55c-.32-.56-.64-1.15-.94-1.74v15.26l7.2-1C1213.93,287.38,1212.64,283.6,1211.35,282.31Zm0,0c-.22-.23-.42-.47-.62-.72-.06-.08-.13-.16-.18-.24a6.48,6.48,0,0,1-.53-.73c-.2-.28-.38-.57-.56-.87s-.34-.62-.5-.94l0-.05-.3-.55c-.32-.56-.64-1.15-.94-1.74v15.26l7.2-1C1213.93,287.38,1212.64,283.6,1211.35,282.31Zm0,0c-.22-.23-.42-.47-.62-.72-.06-.08-.13-.16-.18-.24a6.48,6.48,0,0,1-.53-.73c-.2-.28-.38-.57-.56-.87s-.34-.62-.5-.94l0-.05-.3-.55c-.32-.56-.64-1.15-.94-1.74v15.26l7.2-1C1213.93,287.38,1212.64,283.6,1211.35,282.31Zm0,0c-.22-.23-.42-.47-.62-.72-.06-.08-.13-.16-.18-.24a6.48,6.48,0,0,1-.53-.73c-.2-.28-.38-.57-.56-.87s-.34-.62-.5-.94l0-.05-.3-.55c-.32-.56-.64-1.15-.94-1.74v15.26l7.2-1C1213.93,287.38,1212.64,283.6,1211.35,282.31Zm0,0c-.22-.23-.42-.47-.62-.72-.06-.08-.13-.16-.18-.24a6.48,6.48,0,0,1-.53-.73c-.2-.28-.38-.57-.56-.87s-.34-.62-.5-.94l0-.05-.3-.55c-.32-.56-.64-1.15-.94-1.74v15.26l7.2-1C1213.93,287.38,1212.64,283.6,1211.35,282.31Zm-3.66-11.54V255.18l.09-.17.29-.56a.31.31,0,0,0,0-.09h0l.23.16a2.68,2.68,0,0,1-.07-.27h0q-.1-.45-.18-.9a2.14,2.14,0,0,1-.06-.35q-.07-.45-.12-.9c0-.37-.07-.75-.08-1.12s0-.73,0-1.09a34.31,34.31,0,0,1,.39-4.87c0-.32.1-.65.16-1s.16-.83.26-1.25a.35.35,0,0,1,0-.13l.5.17.45.15a11.59,11.59,0,0,0,.87-.85,10.4,10.4,0,0,0,.76-.88,5.68,5.68,0,0,0,.44-.56,1.7,1.7,0,0,1-.23-.3v0l0,0s0,0,0,0l-.07-.11a.94.94,0,0,1-.12-.18c-.06-.1-.11-.2-.16-.3a4.32,4.32,0,0,1-.26-.68,3.17,3.17,0,0,1-.12-.44c0-.12-.05-.25-.07-.37s0-.25,0-.37,0-.29,0-.44,0,0,0,0q0-.51.09-1c0-.34.08-.68.12-1a16.46,16.46,0,0,0,.18-2.8v0c0-.31,0-.61,0-.92s0-.33,0-.5,0-.22,0-.33a6.51,6.51,0,0,0-.13-.77,4.31,4.31,0,0,0-.19-.61,3.15,3.15,0,0,0-.27-.59.83.83,0,0,0-.07-.13s0,0,0,0,0,0,0,0a1.64,1.64,0,0,0-.14-.22h0l0,0c-.51-.7-1.16-1.31-1.75-2a7.34,7.34,0,0,1-.56-.69v-33H1036.05v77.13s0,0,0,0v1h10.25l-.14.17a10,10,0,0,0-1,1.48c-.07.13-.14.26-.2.4a1.94,1.94,0,0,0-.15.36H1207.1c-.43-.9-.81-1.73-1.11-2.41Zm3.66,11.54c-.22-.23-.42-.47-.62-.72-.06-.08-.13-.16-.18-.24a6.48,6.48,0,0,1-.53-.73c-.2-.28-.38-.57-.56-.87s-.34-.62-.5-.94l0-.05-.3-.55c-.32-.56-.64-1.15-.94-1.74v15.26l7.2-1C1213.93,287.38,1212.64,283.6,1211.35,282.31Zm0,0c-.22-.23-.42-.47-.62-.72-.06-.08-.13-.16-.18-.24a6.48,6.48,0,0,1-.53-.73c-.2-.28-.38-.57-.56-.87s-.34-.62-.5-.94l0-.05-.3-.55c-.32-.56-.64-1.15-.94-1.74v15.26l7.2-1C1213.93,287.38,1212.64,283.6,1211.35,282.31Zm0,0c-.22-.23-.42-.47-.62-.72-.06-.08-.13-.16-.18-.24a6.48,6.48,0,0,1-.53-.73c-.2-.28-.38-.57-.56-.87s-.34-.62-.5-.94l0-.05-.3-.55c-.32-.56-.64-1.15-.94-1.74v15.26l7.2-1C1213.93,287.38,1212.64,283.6,1211.35,282.31Zm0,0c-.22-.23-.42-.47-.62-.72-.06-.08-.13-.16-.18-.24a6.48,6.48,0,0,1-.53-.73c-.2-.28-.38-.57-.56-.87s-.34-.62-.5-.94l0-.05-.3-.55c-.32-.56-.64-1.15-.94-1.74v15.26l7.2-1C1213.93,287.38,1212.64,283.6,1211.35,282.31Zm0,0c-.22-.23-.42-.47-.62-.72-.06-.08-.13-.16-.18-.24a6.48,6.48,0,0,1-.53-.73c-.2-.28-.38-.57-.56-.87s-.34-.62-.5-.94l0-.05-.3-.55c-.32-.56-.64-1.15-.94-1.74v15.26l7.2-1C1213.93,287.38,1212.64,283.6,1211.35,282.31Zm0,0c-.22-.23-.42-.47-.62-.72-.06-.08-.13-.16-.18-.24a6.48,6.48,0,0,1-.53-.73c-.2-.28-.38-.57-.56-.87s-.34-.62-.5-.94l0-.05-.3-.55c-.32-.56-.64-1.15-.94-1.74v15.26l7.2-1C1213.93,287.38,1212.64,283.6,1211.35,282.31ZM845.87,192.6v78.17H994.38a5.4,5.4,0,0,0,.09.58,2.74,2.74,0,0,0,.09.39,3.94,3.94,0,0,0,.2.61c0,.09.07.17.1.26s.19.38.3.57h1.78l-.21-.61-.15-.45c-.05-.15-.1-.3-.14-.45-.1-.3-.18-.6-.25-.9h26.16V192.6Zm-136.18,0v78.17H832.17V192.6Z"/><path class="cls-1" d="M768.51,51.34h1a2.69,2.69,0,0,1-1.29-2.1h0c0-1.69,2-3.06,4.52-3.06h31.74c2.5,0,4.52,1.37,4.52,3.06h0c0,1.69-2,3.06-4.52,3.06h-1a2.82,2.82,0,0,1,1.29,2.1c0,1.45-1.45,2.58-3.47,2.9h9.19c2.5,0,4.51,1.37,4.51,3.06s-2,3.07-4.51,3.07H778.75c-2.5,0-4.51-1.37-4.51-3.07,0-1.45,1.45-2.58,3.46-2.9h-9.11c-2.49,0-4.51-1.37-4.51-3.06S766,51.34,768.51,51.34Z"/><path class="cls-1" d="M1112.77,80.19h1a2.82,2.82,0,0,1-1.29-2.1h0c0-1.69,2-3.06,4.52-3.06h31.75c2.49,0,4.51,1.37,4.51,3.06h0c0,1.69-2,3.06-4.51,3.06h-1a2.82,2.82,0,0,1,1.29,2.1c0,1.45-1.45,2.58-3.47,2.9h9.11c2.5,0,4.51,1.37,4.51,3.06s-2,3.06-4.51,3.06h-31.75c-2.5,0-4.51-1.37-4.51-3.06,0-1.45,1.45-2.58,3.46-2.9h-9.1c-2.5,0-4.52-1.37-4.52-3.06S1110.27,80.19,1112.77,80.19Z"/><path class="cls-1" d="M719.76,203.56h1a2.65,2.65,0,0,1-1.29-2.1h0c0-1.69,2-3.06,4.51-3.06h31.75c2.5,0,4.51,1.37,4.51,3.06h0c0,1.7-2,3.07-4.51,3.07h-1a2.63,2.63,0,0,1,1.29,2.09c0,1.45-1.45,2.58-3.46,2.9h9.19c2.49,0,4.51,1.37,4.51,3.06s-2,3.07-4.51,3.07H730c-2.5,0-4.52-1.37-4.52-3.07,0-1.45,1.45-2.57,3.47-2.9h-9.19c-2.5,0-4.51-1.37-4.51-3.06S717.34,203.56,719.76,203.56Z"/><path class="cls-2" d="M1019.29,201.87s-6.13,2.17-7.17,3.22S1019.29,201.87,1019.29,201.87Z"/><path class="cls-2" d="M1039.92,195.9c-2.82-.16-13-2.82-13.38-1.93S1039.92,195.9,1039.92,195.9Z"/><path class="cls-1" d="M995.41,97.32a18.2,18.2,0,0,1,5.8-3.31A40.12,40.12,0,0,1,1016,92.4a63.75,63.75,0,0,1,10.88,1.53l167,47.22a97.08,97.08,0,0,1,9.26,3.15c10.8-4.19,41.18-16.44,44.56-20.79l13.06,3.78-21.84,32.56h0a3,3,0,0,1,1.53,4,2.91,2.91,0,0,1-1.77,1.61c-25.14,8.62-63.1-2.82-63.1-2.82l-145.85-41.66C1029.66,121,985.66,106.1,995.41,97.32Z"/><ellipse class="cls-1" cx="1188.25" cy="149.49" rx="2.1" ry="1.29" transform="matrix(0.31, -0.95, 0.95, 0.31, 674.7, 1231.41)"/><ellipse class="cls-1" cx="1183.27" cy="147.8" rx="2.1" ry="1.29" transform="translate(672.89 1225.52) rotate(-71.78)"/><ellipse class="cls-1" cx="1173.52" cy="144.62" rx="2.1" ry="1.29" transform="translate(669.21 1214.07) rotate(-71.78)"/><ellipse class="cls-1" cx="1146.11" cy="136.59" rx="2.1" ry="1.29" transform="translate(658 1182.52) rotate(-71.78)"/><ellipse class="cls-1" cx="1141.33" cy="135.03" rx="2.1" ry="1.29" transform="translate(656.19 1176.9) rotate(-71.78)"/><ellipse class="cls-1" cx="1136.31" cy="133.85" rx="2.1" ry="1.29" transform="translate(653.86 1171.33) rotate(-71.78)"/><ellipse class="cls-1" cx="1131.32" cy="132.2" rx="2.1" ry="1.29" transform="translate(652.01 1165.45) rotate(-71.78)"/><ellipse class="cls-1" cx="1126.34" cy="130.54" rx="2.1" ry="1.29" transform="matrix(0.31, -0.95, 0.95, 0.31, 650.16, 1159.59)"/><ellipse class="cls-1" cx="1121.9" cy="129.04" rx="2.1" ry="1.29" transform="translate(648.53 1154.33) rotate(-71.78)"/><ellipse class="cls-1" cx="1117.14" cy="127.51" rx="2.1" ry="1.29" transform="translate(646.71 1148.77) rotate(-71.78)"/><ellipse class="cls-1" cx="1112.09" cy="125.84" rx="2.1" ry="1.29" transform="translate(644.83 1142.82) rotate(-71.78)"/><ellipse class="cls-1" cx="1107.66" cy="124.36" rx="2.1" ry="1.29" transform="translate(643.18 1137.6) rotate(-71.78)"/><ellipse class="cls-1" cx="1080.17" cy="116.93" rx="2.1" ry="1.29" transform="translate(633.95 1107.55) rotate(-71.93)"/><ellipse class="cls-1" cx="1073" cy="114.74" rx="2.1" ry="1.29" transform="translate(628.5 1098.06) rotate(-71.78)"/><ellipse class="cls-1" cx="1068.1" cy="113.16" rx="2.1" ry="1.29" transform="translate(626.64 1092.32) rotate(-71.78)"/><ellipse class="cls-1" cx="1063.4" cy="111.56" rx="2.1" ry="1.29" transform="translate(624.93 1086.75) rotate(-71.78)"/><ellipse class="cls-1" cx="1058.74" cy="110.03" rx="2.1" ry="1.29" transform="translate(623.17 1081.28) rotate(-71.78)"/><ellipse class="cls-1" cx="1053.44" cy="108.32" rx="2.1" ry="1.29" transform="translate(621.15 1075.07) rotate(-71.78)"/><ellipse class="cls-1" cx="1077.75" cy="116.32" rx="2.1" ry="1.29" transform="matrix(0.31, -0.95, 0.95, 0.31, 630.27, 1103.65)"/><ellipse class="cls-1" cx="1177.99" cy="146.05" rx="2.1" ry="1.29" transform="translate(670.92 1219.3) rotate(-71.78)"/><rect class="cls-1" x="1095.78" y="121.99" width="8.22" height="4.67" transform="translate(715.54 1162.35) rotate(-76.13)"/><rect class="cls-1" x="1041.99" y="106.61" width="8.22" height="4.67" transform="translate(689.56 1098.43) rotate(-76.13)"/><polygon class="cls-1" points="1021.44 94.42 1027.56 96.03 1024.5 100.62 1015.47 98.36 1021.44 94.42"/><path class="cls-1" d="M1001.21,94.09l13.14,3.39,5-3.06-3.3-1.94A40.3,40.3,0,0,0,1001.21,94.09Z"/><path class="cls-1" d="M1260.69,127.29l-21.84,32.64-35.62-15.79s40.38-15.4,44.32-20.71Z"/><polygon class="cls-1" points="1102.42 132.21 1160.04 147.76 1163.42 154.53 1102.42 132.21"/><path class="cls-1" d="M148,10c0,33-88,17-88,46C60,74.09,25.77,80.89,0,83.46V0H143.41C146.37,3.46,148,6.82,148,10Z"/><path class="cls-1" d="M173,574c0,55-121,89-121,22,0-40.3-28.94-43.7-52-40V333C64.1,290.55,189,212.57,189,249c0,49-91,98-100,137S173,519,173,574Z"/><path class="cls-3" d="M1265.18,281.58c-.33-.32-.73-.72-1.21-1.21-1.76-1.68-5.27-4.7-8.23-7.19l-.07-.06,1-.08-.41-.4h.41s-.7-.84-1.71-1.87c-1.57-1.6-3.87-3.67-5.39-3.77-2.49-.24-2.57.24-2.57.24L1227.79,251s-6.21-5.56-5.72-7.25c.32-1.05,2.41-7.09,2-11.93.16-.32.24-.72.4-1.13a25.51,25.51,0,0,0,1.53-10.71,13.72,13.72,0,0,0-4.62-9.09c-.17-.15-.35-.29-.53-.42-2.82-2-6.77-3-8.71-5.8-.64-1-1-1.94-1.69-2.82a10.24,10.24,0,0,0-2.74-2.26l0,0c-2-1.28-4.65-2.47-6.82-1.35a3.94,3.94,0,0,1-2,1,2.62,2.62,0,0,1-1.37-.41,14.73,14.73,0,0,0-9.67-.64,6.84,6.84,0,0,0-3.55,2.17l-.08.09c-.08.16-.16.24-.24.4s-.08.24-.16.4v.08a3.46,3.46,0,0,0-.08.4.77.77,0,0,0-.08.41v1.37a3.28,3.28,0,0,1-.08.88c-.57,1.86-3.07,2.5-4.27,4.11-.08.08-.17.25-.25.33a2.84,2.84,0,0,0-.32.72,5.66,5.66,0,0,0-.24,1.61,11.59,11.59,0,0,0,.81,3.71l.72,1.93c.24.65.48,1.29.73,1.94.08.16.08.32.16.48a5,5,0,0,0,.4,1,1.14,1.14,0,0,0,.11.11h0l.07.08,0,0a.78.78,0,0,1,.1.15l.08.08a.41.41,0,0,1,0,.09l0,0a3,3,0,0,0-.25.37,16.57,16.57,0,0,0-2.42,8.46,16.34,16.34,0,0,0,1.86,7.58l0,.1a17.28,17.28,0,0,0,7,7.14c-.07.29-.14.52-.21.73l0,.08a16.33,16.33,0,0,1-3.15,5.48c-2.41,1.21-4.51,2.17-6.36,3.06s-3.47,1.61-4.92,2.18l-.72.24-.25-.24c-5,2-7.81,2.33-13.61,2.9l-1.45.24.24.16c-8.14,2.1-14.35,10.88-14.35,11.52a.2.2,0,0,1,0,.07,7.72,7.72,0,0,1-1.55,2.41c-.37.46-.76.92-1.1,1.31-1,1.21.73,3.31.73,3.31s-3.22,2.09-2.74,4-2.42,5.24-2.42,5.24l-12,16.52-2.34,2.5c-1.13,1.21-.32,3.55-.32,3.55s-2.42,5.72-1.21,8c1.37,2.58,3.22,6.77,4.67,7.42a5.42,5.42,0,0,0,1.51.2c.81,0,1.84,0,2.92,0l1.15-.07.45,0,2.27-.15c0,.33,0,.72,0,1.16a0,0,0,0,0,0,0v.09c-.2,4.14-.58,12.37.06,14a66.64,66.64,0,0,0,3.06,6.69l.08.16,17.41,15.31a9.47,9.47,0,0,0,2.66,4.59,13.73,13.73,0,0,0-.21,1.55,22.52,22.52,0,0,0-.11,2.32c-.08,2.42.24,4.83,1.85,5.8l.45-.1a4.15,4.15,0,0,0,.63-.2l0,0v.07l.06.94,0,.36.64,13.21-.24,37.56,1.29-.05,7.09-.28v.16l0,.5a70.76,70.76,0,0,0,.86,7.89c.89,4.27,0,15.39,0,15.39l-1.45,14.5c-2.74,6-1.13,18.78-.08,24.1.16,1,.4,1.85.64,2.74.81,2.57,4.27,19.34,6.21,22.08a10.61,10.61,0,0,1,1,2.57,30.91,30.91,0,0,0-3,7.11c-.42,1.33-.79,2.66-1.11,3.85l-.25.81a5.18,5.18,0,0,0,2.1,5.64l6.12,4.35q0,1.53-.15,3.06a72,72,0,0,1-1,7.82s-.1.26-.25.7-.32,1-.48,1.72c-.48,1.77-.89,4-.32,5.07,1,1.86,1.29,6.13,1.29,6.13s2.48,3.55,6.09,3.2h.07a5.56,5.56,0,0,0,1-.22c3.34-1,12-.82,15.69-.86h.64a6.76,6.76,0,0,0,.89-.06.36.36,0,0,0,.18,0c2.34-1,1.29-3.3,0-5.4l-1.16-1.72a14.64,14.64,0,0,1-.85-1.42l-.1-.21-1.33-3.07c-.17-.39-.33-.78-.48-1.16-.79-1.84-1.47-3.46-1.47-3.46v-1.45h.06a17.23,17.23,0,0,0,7.11-.09,5.22,5.22,0,0,0,2-1,2.39,2.39,0,0,0,.5-3,5.93,5.93,0,0,0-2-2.36,5.2,5.2,0,0,0-1-.49c-1.93-.56-6.52-4.27-6.52-4.27s-.52-.68-1.24-1.7l-.51-.75a24,24,0,0,1-3.38-6.51l0-.14a7.33,7.33,0,0,0-1.33-2.51q-.18-.21-.36-.39c0-.08,0-.17,0-.26-.14-2.49-.29-5.32-.38-8h0c0-.3,0-.6,0-.89l.35-.85c2.55-6.19,7-16.61,11-23.36q.45-.8.9-1.5l.41-.64c6.2-9.43,6-25,7.41-26.51s1.77-9.75,1.77-9.75,2.18-6.29,3.15-9.92c.64-2.17,1.69-6.28,2.49-9.26a1.41,1.41,0,0,0,.08-.31,1,1,0,0,1,.08-.26,19.44,19.44,0,0,0,4-1.24l.81-.37s-.16-11.2.08-12.33,1-5.72,1-5.72,1.53-4.67,1.21-6.12,1.61-5.8,2.33-7.5,1.61-7.33,1.61-7.33l.89-6.61a4.35,4.35,0,0,0,1.29-1.45c.08-.4-.16-4.35-.4-7.65,0-.33,0-.65-.06-.95,0-.12,0-.23,0-.34V376h.15c.79-.08,1.22-.15,1.22-.15v-.57a32.85,32.85,0,0,0,7.25-1.35h0c11.78-3.84,6.73-13.47,6.73-13.47l-2.08-10.91-5.09-26.64s-2.34-11.28-2.1-14.42c.2-2.61-2-10.42-2.73-13l-.25-.85s8.06.48,12.33,2.17c2.21.88,5.62.87,8.39.66.77-.06,1.49-.14,2.12-.22,1.47-.18,2.46-.36,2.46-.36a15.2,15.2,0,0,0,1.67-.21h0c5.76-1.06,5.41-4.94,5.41-4.94S1267.76,284.32,1265.18,281.58Zm-70.26,148.73a1.51,1.51,0,0,0-.14.34v.06l0,0c0-.2,0-.39,0-.57,0-.61,0-1.15,0-1.6v1.29l.24.16C1195,430.1,1195,430.19,1194.92,430.31Zm24.29-170h0l-1-.17a8.61,8.61,0,0,1-2-.16c-1.21-.25-2.58-.81-3-2.1-.8-2.42-4.19-4.67-4.35-4.75a23.11,23.11,0,0,1-.08-9.11c0-.12,0-.24,0-.35a5.1,5.1,0,0,1,.14-.7l.09-.07a.51.51,0,0,0,.13-.09c.33-.22.66-.54,1-.8l.33.1,1.57.49.68.21c0,.41,0,.82,0,1.21a.61.61,0,0,0,0,.14c.06,4,.38,7,.38,7l8.22,9.43C1220.49,260.52,1219.75,260.41,1219.21,260.32Z"/><path class="cls-4" d="M1166.87,264.26s8.7,10.8,15.63,19.26c4.51,5.48,8.22,10,8.54,10.07h.89c3.54-.24,16.92-2,23-2.82l3.07-.4s-.17-5.08-1-11.2c-.89-7.34-2.74-16.28-6.13-19.91a10.41,10.41,0,0,1-2.17-3.62c-1.21-3.39-1-7.34-.49-10.64a36.26,36.26,0,0,1,1.62-6.45s-22.08-12.73-21-1.21a21.31,21.31,0,0,1-.88,8.71,14.79,14.79,0,0,1-5.08,7.41l-.08.08Z"/><path class="cls-2" d="M1187.9,246.13a18.31,18.31,0,0,0,20.22-1,36.26,36.26,0,0,1,1.62-6.45s-22.08-12.73-21-1.21A20,20,0,0,1,1187.9,246.13Z"/><path class="cls-4" d="M1179.52,230.57c-.08,9.43,7.81,17.17,17.65,17.17s17.8-7.5,17.8-16.92-7.81-17.17-17.64-17.17a17.76,17.76,0,0,0-15.48,8.54A17.28,17.28,0,0,0,1179.52,230.57Z"/><path class="cls-2" d="M1181.85,222.19a.62.62,0,0,1,.17.33c1.12,1.53,3.38,1.77,5.39,1.69,2.34-.16,4.92-1,5.89-3,1-1.86.72-3.87,3.22-4.11,2.18-.25,5.16-1.7,7.25-.81,1.7.65,2.34,2.66,2.5,4.43s0,3.63.81,5.16,2.33,2.5,3.14,3.95c.89,1.69.72,3.62.48,5.48s-.48,3.87.33,5.56a1.75,1.75,0,0,0,.24.4,16.76,16.76,0,0,0-3.23-24,18.18,18.18,0,0,0-24.9,3.14A18.54,18.54,0,0,0,1181.85,222.19Z"/><path class="cls-5" d="M1193.38,220.26c-1,2-3.55,2.82-5.88,3-1.94.16-4.28-.08-5.4-1.69a7.69,7.69,0,0,1-.89-1.85l-1.37-3.95c-.73-2.1-1.37-4.52-.08-6.29,1.13-1.61,3.63-2.26,4.11-4.11.24-.89,0-1.77.16-2.66.32-1.85,2.26-3,4-3.54a13.84,13.84,0,0,1,9.35.64,3.42,3.42,0,0,0,1.29.4c.72,0,1.29-.56,1.93-1,2.1-1.13,4.67.08,6.61,1.37a14,14,0,0,1,2.66,2.17c.64.89,1,1.86,1.61,2.74,1.85,2.82,5.64,3.71,8.38,5.8a13.61,13.61,0,0,1,5,9.43,27.18,27.18,0,0,1-1.45,10.72,6.26,6.26,0,0,1-.89,1.93c-1.13,1.62-3.39,2.34-4.43,4-.89,1.29-1,3.23-2.34,4.11-1.61,1.05-4,0-4.75-1.77s-.57-3.71-.33-5.56.49-3.87-.48-5.48c-.81-1.45-2.34-2.42-3.14-3.95s-.65-3.38-.81-5.16-.8-3.7-2.5-4.43c-2.09-.88-5.07.57-7.25.81C1194.1,216.39,1194.26,218.41,1193.38,220.26Z"/><g class="cls-6"><path d="M1219.08,235.25c1.13-1.61,3.31-2.34,4.44-3.95h0c0,.08-.08.24-.08.32a6.31,6.31,0,0,1-.89,1.94c-1.13,1.61-3.39,2.33-4.43,3.94a.44.44,0,0,0-.16.33A24.16,24.16,0,0,1,1219.08,235.25Z"/><path d="M1184.92,203.18a3.53,3.53,0,0,1-.81,1.37,13.22,13.22,0,0,1,0-1.78A3.07,3.07,0,0,1,1185,201,10,10,0,0,1,1184.92,203.18Z"/><path d="M1197.57,213.89c2.17-.24,5.16-1.69,7.25-.8,1.69.64,2.34,2.66,2.5,4.43s0,3.63.8,5.16,2.34,2.49,3.15,3.95a9.11,9.11,0,0,1,.48,5.47c-.24,1.86-.48,3.87.32,5.57s3.23,2.82,4.76,1.77a4,4,0,0,0,1-1.05c-.56,1.21-.8,2.58-1.85,3.3-1.61,1.05-4,0-4.75-1.77s-.57-3.71-.33-5.56.49-3.87-.48-5.48c-.81-1.45-2.34-2.42-3.14-3.95s-.65-3.38-.81-5.15-.8-3.71-2.5-4.44c-2.09-.88-5.07.57-7.25.81a2.39,2.39,0,0,0-1.85.89C1195.23,215.5,1195.47,214.13,1197.57,213.89Z"/><path d="M1179.84,209.54c.08-.08.16-.24.24-.32a10.11,10.11,0,0,0,.81,4.35l1.29,4a5.62,5.62,0,0,0,.88,1.85c1.13,1.53,3.39,1.78,5.4,1.7s4.43-.81,5.64-2.5a15.71,15.71,0,0,1-.64,1.77c-1,2-3.55,2.82-5.88,3-1.94.16-4.28-.08-5.4-1.69a7.51,7.51,0,0,1-.89-1.85c-.4-1.29-.89-2.58-1.37-3.95C1179.2,213.81,1178.55,211.31,1179.84,209.54Z"/></g><path class="cls-7" d="M1222.07,222.11l-6.45-2.17a2.42,2.42,0,0,0-3.06,1.45L1206,239.44a2.35,2.35,0,0,0,1.53,3l6.45,2.18a2.43,2.43,0,0,0,3.06-1.46l6.53-18A2.33,2.33,0,0,0,1222.07,222.11Z"/><path class="cls-8" d="M1222.47,222.11l-6.45-2.17a2.42,2.42,0,0,0-3.06,1.45l-6.53,18.05a2.35,2.35,0,0,0,1.53,3l6.45,2.18a2.43,2.43,0,0,0,3.06-1.46l6.53-18A2.32,2.32,0,0,0,1222.47,222.11Z"/><ellipse class="cls-9" cx="1217.06" cy="227.68" rx="1.77" ry="1.85" transform="translate(982.02 1443.34) rotate(-89.65)"/><path class="cls-4" d="M1217.07,431.79s-2.34,9.11-3.3,12.73-3,9.91-3,9.91-.32,8.14-1.69,9.75-1.21,17-7.17,26.44-13.86,30.62-13.86,30.62l-1,7.17-9.91-11.2,8.54-40.86s4.92-16.52,3.47-21.76,6.28-25.22,6.28-25.22Z"/><path class="cls-10" d="M1177.1,517.05l9.91,11.2,1-7.17s7.9-21.2,13.86-30.63,5.72-24.82,7.17-26.43,1.69-9.75,1.69-9.75,2.1-6.28,3-9.91c.56-2.17,1.61-6.28,2.41-9.27.57-2,.89-3.46.89-3.46l-21.68-2.42s-.24.65-.64,1.69c-1.86,4.92-6.85,19.26-5.64,23.53,1.45,5.16-3.47,21.76-3.47,21.76Z"/><path class="cls-11" d="M1173.72,535.74l8.7,6.37c4.19,4.35,16.52,8.06,21.92,6.44,4.59-1.37,2.33-5,.4-6.36a1.82,1.82,0,0,0-1-.48c-1.85-.57-6.28-4.28-6.28-4.28s-4.35-5.72-5-9.1-5.64-6.21-5.64-6.21-6.69-6.36-9.67-5.07c-2,.8-4.11,7.65-5.32,12.25l-.16.8A5.09,5.09,0,0,0,1173.72,535.74Z"/><path class="cls-2" d="M1173.72,535.74l8.7,6.37c4.19,4.35,16.52,8.06,21.92,6.44,4.59-1.37,2.33-5,.4-6.36-1.85,2.82-8.62,2.25-8.62,2.25l-12-5.23-12.17-9.83-.16.8A4.86,4.86,0,0,0,1173.72,535.74Z"/><path class="cls-10" d="M1187.41,520.59s7.9-21.19,13.86-30.62,5.73-24.82,7.18-26.43,1.69-9.75,1.69-9.75,2.09-6.29,3-9.91c.56-2.18,1.61-6.29,2.42-9.27.56-2,.88-3.46.88-3.46L1196,428.81l.08-.16,21.67,2.5s-.4,1.53-.88,3.46c-.73,3-1.77,7.09-2.42,9.27-1,3.62-3,9.91-3,9.91s-.32,8.14-1.69,9.75-1.21,17-7.18,26.43-13.86,30.62-13.86,30.62l-1,7.17-1.21-1.37Z"/><rect class="cls-12" x="1135.83" y="298.35" width="27" height="24.26" transform="translate(831.9 1457.91) rotate(-89.65)"/><path class="cls-12" d="M1135.28,341.29a71,71,0,0,0,3,6.61.25.25,0,0,1,.08.16l17.32,15.8.41.4.08-.32c1-3,7.65-24.18,8.46-25.3.64-.89.32-4.68.16-6.53-.08-.65-.16-1.13-.16-1.13l.56-14.67-2.58-4.83-24,7.17L1135.2,325C1135.36,324.94,1134.47,339,1135.28,341.29Z"/><path class="cls-13" d="M1138.26,347.9a.25.25,0,0,1,.08.16l17.32,15.8h.49l6,.4,4.51-33.76s-.72.64-1.93,1.53c-3.47,2.74-10.88,8.06-16.6,8.78C1142.61,341.38,1139.47,345.65,1138.26,347.9Z"/><path class="cls-2" d="M1138.26,347.9a.25.25,0,0,1,.08.16l17.32,15.8h.49l6,.4,4.51-33.76s-.72.64-1.93,1.53c-3.47,2.74-10.88,8.06-16.6,8.78C1142.61,341.38,1139.47,345.65,1138.26,347.9Z"/><path class="cls-2" d="M1136.49,339.36s3.62-.32,5.15-1.69a41.52,41.52,0,0,1,5.56-3.55l-5.72,6C1141.56,340.17,1137.21,341.46,1136.49,339.36Z"/><path class="cls-2" d="M1150.59,343.31s-.4,6.12-4.27,6.12S1150.59,343.31,1150.59,343.31Z"/><path class="cls-2" d="M1146.64,343.23s-3,5.08-4.35,4.43S1146.64,343.23,1146.64,343.23Z"/><path class="cls-14" d="M1228.19,293.91l4,1.45s7.82.49,11.93,2.18,12.57.08,12.57.08-14.51-18.45-14.75-18.54l-15.47-5.56Z"/><path class="cls-15" d="M1228.19,293.91l4,1.45s7.82.49,11.93,2.18,12.57.08,12.57.08-14.51-18.45-14.75-18.54l-15.47-5.56Z"/><path class="cls-4" d="M1168.8,493.84c.81,2.58,4.19,19.26,6,22s4,18.21,4,18.21l.41.32.88.65s13.38-.49,11.85-2.82a7,7,0,0,1-.57-2.18c-1-6.28-1-23.13-1-23.13V480.3s-3.47-8.62-1-14.91a32,32,0,0,0,2.26-11.68s-.33-6.13,1.37-8.62c1.37-2,1.69-12.57,1.77-16.52v-1.45l-2.18-3.15-23.77,1.45s.08,1.86.16,4.27a72.37,72.37,0,0,0,.81,8.39c.8,4.27,0,15.39,0,15.39l-1.45,14.42C1165.25,474.82,1167.91,491.26,1168.8,493.84Z"/><path class="cls-10" d="M1194.75,431v.17a28.69,28.69,0,0,0,21.43,4c.57-2,.89-3.46.89-3.46l-21.68-2.42S1195.15,429.94,1194.75,431Z"/><path class="cls-16" d="M1160.1,372.72l.24,5.8.64,13.14,34,5.56-.16,33c14.34,8.94,26.91,2.26,26.91,2.26s-.16-11.21.08-12.33,1-5.73,1-5.73,1.53-4.75,1.21-6.12,1.53-5.8,2.26-7.49,1.53-7.34,1.53-7.34l.8-6.61a3.62,3.62,0,0,0,1.29-1.45,64.52,64.52,0,0,0-.32-7.65c-.16-2.42-.32-4.51-.32-4.51l-31.75-6Z"/><path class="cls-10" d="M1196,401.25l-.16,25.95c.64-.33,1.53-1.21,1.61-3.39.16-3.46.48-11.6,1-15.31s-1.85-7.65-1.85-7.65Z"/><path class="cls-2" d="M1215.46,390.85s-1.61,3.39-6.61,4.27S1215.46,390.85,1215.46,390.85Z"/><path class="cls-2" d="M1220.37,397.62s-10.71,1.69-13.29,1.53Z"/><path class="cls-2" d="M1217.07,405.12s-6,0-9.51-1.45Z"/><path class="cls-2" d="M1218.2,422.76s-15.56-5.8-17.41-8.78Z"/><path class="cls-2" d="M1214.49,430.1c-.48-.08-14.18-8.14-15.31-10.24Z"/><path class="cls-2" d="M1168.8,425.34s.08,1.86.16,4.27l25.79-1.12h0V427l-2.18-3.15Z"/><path class="cls-2" d="M1190.07,395.85s-13.13-3.22-15.87-1.21S1190.07,395.85,1190.07,395.85Z"/><path class="cls-2" d="M1203.29,373.77s-2.82,23.85-5,25.38S1187,373.69,1187,373.69Z"/><path class="cls-16" d="M1202.81,372.88s-2.82,23.86-5,25.39-11.28-25.47-11.28-25.47Z"/><path class="cls-2" d="M1160.1,372.72l.24,5.8a20.88,20.88,0,0,0,6.69-3.7c.08-.08.24-.16.32-.24,2.66-1.78,6.12-1.13,8.38-.33a13,13,0,0,1,2.34,1.05s34.41,1.37,34.41.4c0-.64,4.83.41,8.13,1.29a26,26,0,0,1,2.58.81h0c1.21.48,4.27.32,6,.16h.08c-.16-2.42-.32-4.51-.32-4.51l-31.75-6Z"/><path class="cls-2" d="M1159.21,376.59a6,6,0,0,0,1.13-.32,21.48,21.48,0,0,0,6.77-3.71c.08-.08.24-.16.32-.24,2.66-1.77,6.12-1.13,8.38-.32a12.26,12.26,0,0,1,2.34,1s34.41,1.37,34.41.41c0-.65,4.83.4,8.14,1.29a24.12,24.12,0,0,1,2.57.8h0c1.21.49,4.28.33,6,.16.8-.08,1.29-.16,1.29-.16v-.24l-1.45-41.58-4.68-37.07-1.69-15.55-5.8-2.74-5.8-2.82a16.2,16.2,0,0,1-2.26,2.42c-3,2.58-8.78,5.8-16.52,1.37a25.49,25.49,0,0,1-2.42-1.62c-2.66-2-5.15.25-7.41,5-9,18.54-15.15,75.91-15.15,75.91l-8.86,5.4s-.33,1.05-.65,2.58C1157.28,369.82,1156.79,375.06,1159.21,376.59Z"/><path class="cls-17" d="M1159.21,377.48a5.36,5.36,0,0,0,1.13-.33,21.26,21.26,0,0,0,6.77-3.7c.08-.08.24-.16.32-.24,2.66-1.78,6.12-1.13,8.38-.33a13,13,0,0,1,2.34,1.05s34.41,1.37,34.41.4c0-.64,4.83.41,8.14,1.29a26.66,26.66,0,0,1,2.57.81h0c1.21.48,4.28.32,6,.16.8-.08,1.29-.16,1.29-.16v-.24l-1.45-41.58-4.68-37.07L1222.79,282l-5.8-2.74-5.8-2.74a12.51,12.51,0,0,1-2.26,2.33c-3,2.58-8.78,5.81-16.52,1.37a23.64,23.64,0,0,1-2.42-1.61c-2.66-2-5.15.24-7.41,5-9,18.53-15.15,75.91-15.15,75.91l-8.86,5.4s-.33,1-.65,2.57C1157.28,370.71,1156.71,376,1159.21,377.48Z"/><path class="cls-2" d="M1157.92,367.48c2.26,2.82,6,4.6,9.51,5.73a44.42,44.42,0,0,0,7.82,1.85l.56-2.18c1.29-4.91,4.59-16.92,6.45-21.35a52,52,0,0,0,3.06-12.25,62.22,62.22,0,0,1,3.55-17.65c1.53-4.19,2.41-16.19,3-28,.24-4.67.4-9.27.48-13.46.24-8.54.32-14.82.32-14.82l-2.74-4.28a8.6,8.6,0,0,0-1.21-5.47,14.28,14.28,0,0,0-2.82-3.47l-3.06,1.53L1167,264.34s8.7,10.8,15.63,19.26c-9,18.53-15.15,75.91-15.15,75.91l-8.86,5.4A9.79,9.79,0,0,0,1157.92,367.48Z"/><path class="cls-14" d="M1160.34,339c.4,8.7-5.4,23.21-5.4,23.21.89,10.31,19.34,12.41,19.34,12.41s4.59-17.81,7-23.53a48.25,48.25,0,0,0,3.06-12.25,62.15,62.15,0,0,1,3.55-17.65c3.38-9.27,3.79-56.33,3.79-56.33l-2.74-4.27a8.69,8.69,0,0,0-1.21-5.48,14.51,14.51,0,0,0-2.82-3.46c-2.42,1.2-4.44,2.25-6.21,3.06s-3.38,1.61-4.75,2.17c-4.84,2-7.5,2.34-13.14,2.9a9.65,9.65,0,0,0-1.37.25c-8.14,1.77-14.5,11-14.5,11.68s-1.61,2.58-2.58,3.79.64,3.3.64,3.3-3.14,2.1-2.66,4S1138,288,1138,288l17.32,12.81S1159.94,330.26,1160.34,339Z"/><circle class="cls-18" cx="1188.94" cy="273.21" r="0.97"/><circle class="cls-18" cx="1188.86" cy="285.62" r="0.97"/><circle class="cls-18" cx="1185.31" cy="315.03" r="0.97"/><circle class="cls-18" cx="1182.81" cy="330.1" r="0.97"/><circle class="cls-18" cx="1180.31" cy="345.98" r="0.97"/><circle class="cls-18" cx="1186.84" cy="300.04" r="0.97"/><path class="cls-2" d="M1178.71,255.64a19.85,19.85,0,0,0,4.84,4c.88,0,3-2.33,4.19-3.62a14.76,14.76,0,0,0-2.82-3.47C1182.5,253.78,1180.48,254.75,1178.71,255.64Z"/><path class="cls-14" d="M1178.71,254.75a22.14,22.14,0,0,0,4.84,4c.88,0,3-2.34,4.19-3.63a14.51,14.51,0,0,0-2.82-3.46C1182.5,252.81,1180.48,253.86,1178.71,254.75Z"/><path class="cls-2" d="M1204.34,269.41s2.33,5.4,4.59,9.35a15.16,15.16,0,0,0,2.42,3.55c1.29,1.29,2.58,5.07,3.54,8.46s1.53,6.28,1.53,6.28c1.29,1.94,1.13,26.19,1.13,26.19-2.33,9.27,1.61,35.7,1.61,35.7l1.13,12.82.32,3.86.09.73c.88,0,1.69.08,2.49.08h0a49.16,49.16,0,0,0,6-.16,6.41,6.41,0,0,0,1.29-.16L1229,334.53l-4.68-37.07-1.69-15.55-5.8-2.74c-.89-7.34-2.74-16.28-6.13-19.91a10.41,10.41,0,0,1-2.17-3.62,8.73,8.73,0,0,0-1.37-1s-.65,1.13-1.29,2.42c-.81,1.45-1.69,3.14-2.1,3.94C1203,262.73,1204.34,269.41,1204.34,269.41Z"/><path class="cls-14" d="M1205.22,269s4.44,10.48,7,13,5.08,14.74,5.08,14.74c1.29,1.94,1.13,26.19,1.13,26.19-2.34,9.27,1.61,35.7,1.61,35.7l1.53,17.41c30.87,1.53,22.48-14.91,22.48-14.91l-6.93-37.39s-2.33-11.2-2.09-14.35-2.9-13.86-2.9-13.86,5.8-28.28,5.24-29.57-20.31-4.59-20.31-4.59a7.83,7.83,0,0,1-1.93-.16,3.51,3.51,0,0,1-2.83-2.1c-.8-2.42-4.19-4.75-4.19-4.75s-.56,1.12-1.28,2.41c-.81,1.45-1.7,3.15-2.1,3.95C1203.93,262.24,1205.22,269,1205.22,269Z"/><path class="cls-2" d="M1206.84,257.57c3.06,2.66,6.28,12.25,6.28,12.25l2.1-7.9a3.47,3.47,0,0,1-2.82-2.09c-.81-2.42-4.2-4.68-4.2-4.68Z"/><path class="cls-14" d="M1206.84,256.68c3.06,2.66,6.28,12.25,6.28,12.25l2.1-7.9a3.45,3.45,0,0,1-2.82-2.09c-.81-2.42-4.2-4.76-4.2-4.76S1207.56,255.31,1206.84,256.68Z"/><path class="cls-2" d="M1242.45,362.33s-.4,4.51-10.07,1.69S1242.45,362.33,1242.45,362.33Z"/><path class="cls-14" d="M1122.79,318.73c1.37,2.58,3.14,6.77,4.51,7.42a15.55,15.55,0,0,0,4.27.16c2.9-.16,6.12-.49,6.12-.49s-7.25-15.39,2.74-19.18l9,.08,5.8-5.72-15.07-14.1-2.25,1.29-11.61,16.44s-1.21,1.29-2.25,2.5-.33,3.54-.33,3.54S1121.34,316.15,1122.79,318.73Z"/><path class="cls-2" d="M1177.5,302.53s-4.19-33-17.16-42.14l1.37-.24c5.64-.57,8.3-.89,13.13-2.9a32.39,32.39,0,0,1,9.11,24.49c-1,16.85-.16,20.79-.16,20.79h-1.53c-2.82,5.4-14.75,27.89-21.36,32.64l-.64-5.72s17.16-18.86,18.69-26.92Z"/><path class="cls-2" d="M1175.65,302.13s-4.19-33-17.16-42.14l1.37-.25c5.64-.56,8.3-.88,13.13-2.9a32.42,32.42,0,0,1,9.11,24.5c-1,16.84-.17,20.79-.17,20.79h-1.53c-2.82,5.4-14.74,27.88-21.35,32.64l-.65-5.72s17.17-18.86,18.7-26.92Z"/><path class="cls-19" d="M1182,301s-14.43,28.45-22,33.77l-.65-5.72s20.15-22.16,18.7-28.69Z"/><path class="cls-19" d="M1159.45,260c13,9.1,17.17,42.14,17.17,42.14H1183s-1-3.95.16-20.79a32.11,32.11,0,0,0-9.1-24.5c-4.84,2-7.5,2.34-13.14,2.9A7.62,7.62,0,0,0,1159.45,260Z"/><polygon class="cls-2" points="1166.22 334.28 1166.54 357.25 1162.51 359.18 1166.22 334.28"/><path class="cls-2" d="M1157.68,285.77c-2.66-.64-9.59-2.9-9.83-5.07S1157.68,285.77,1157.68,285.77Z"/><path class="cls-2" d="M1157.2,290.12s-8.47-3.46-9.84-4.75S1158.57,287.47,1157.2,290.12Z"/><path class="cls-2" d="M1217.15,266.51s3.71,7.1,1.45,7.82S1217.15,266.51,1217.15,266.51Z"/><path class="cls-2" d="M1188.22,343.55s29.82,17.17,23.45,18.13S1188.22,343.55,1188.22,343.55Z"/><path class="cls-2" d="M1170.09,379.41s-7.9,1.37-7.58,3.71Z"/><path class="cls-4" d="M1133.67,312.85l.32,8.78s2.17,3.71,3.79,4.19a1.36,1.36,0,0,0,.56.08h0c3.14-.16,15.15-3.46,16.28-5.31,1.21-2.1,18.93-9.43,18.93-9.43s15-21.68,3.87-27-10.72,20.47-10.72,20.47-10.07,1.37-11.36,2.18c-1,.64-11,.16-13.94,0h-.8l-3.15.56Z"/><path class="cls-2" d="M1133.67,312.85l.32,8.78s2.17,3.71,3.79,4.19a1.36,1.36,0,0,0,.56.08h.32s-7.17-15.23,2.66-19.18h-.8l-3.15.57Z"/><path class="cls-2" d="M1131.09,326.23c2.9-.17,6.12-.49,6.12-.49s-7.25-15.39,2.74-19.26h0l-7.82-.8C1122.46,312,1129.15,323.32,1131.09,326.23Z"/><path class="cls-14" d="M1131.57,326.23c2.9-.17,6.12-.49,6.12-.49s-7.25-15.39,2.74-19.18h0l-7.81-.8C1122.87,312,1129.56,323.32,1131.57,326.23Z"/><path class="cls-4" d="M1249.14,271.35l-22.48-19.5s-6.05-5.48-5.56-7.25,5.64-16.93-2.82-17.89-5.88,25.46-5.88,25.46L1236.49,281Z"/><path class="cls-2" d="M1263.16,292s1.69-7.42-.8-10.16-13.7-12.24-13.7-12.24-5.72,8.46-15.8,7.17l11.2,14.58s4.92,6.37,12.17,5.81S1263.16,292,1263.16,292Z"/><path class="cls-14" d="M1263.65,292.46s1.69-7.41-.81-10.15-13.7-12.25-13.7-12.25-9.75,9.35-15.23,10.39l10.64,11.29s4.91,6.36,12.17,5.8S1263.65,292.46,1263.65,292.46Z"/><path class="cls-2" d="M1244.47,274.57l10.07-.8s-4.43-5.4-6.85-5.64-2.5.24-2.5.24l3.15,2.74Z"/><path class="cls-14" d="M1244.47,274.17l10.07-.81s-4.43-5.4-6.85-5.64-2.5.24-2.5.24l3.15,2.74Z"/><path class="cls-2" d="M1242.61,276.43s2.5,8.86-6.44,9.34l-2.82-8.62C1233.35,277.23,1239.15,278.36,1242.61,276.43Z"/><path class="cls-14" d="M1242.13,276s2.58,8.79-6.45,9.35l-2.82-8.62C1232.94,276.75,1238.67,278,1242.13,276Z"/><path class="cls-2" d="M1168.24,467.17l1.45-14.43s.8-11.12,0-15.39a56.9,56.9,0,0,1-.81-8.38c-.16-2.42-.16-4.27-.16-4.27l23.77-1.45.08.08-22.48,1.37s.08,1.85.16,4.27a72,72,0,0,0,.81,8.38c.8,4.27,0,15.39,0,15.39l-1.45,14.43c-3.15,6.93-.49,23.45.4,26s4.19,19.26,6,22,4,18.22,4,18.22l1.21.8-1.29.08-1.29-.88s-2.09-15.56-4-18.22-5.15-19.5-6-22S1165.09,474.1,1168.24,467.17Z"/><polygon class="cls-16" points="1165.82 388.84 1160.98 391.66 1160.74 429.13 1195.8 427.6 1198.37 400.12 1192.73 393.35 1165.82 388.84"/><path class="cls-2" d="M1191.28,410.27s-14.82,11.53-19.34,12.25Z"/><path class="cls-2" d="M1178.71,533.16a7.45,7.45,0,0,1,.4,1.21l.89.65s13.38-.49,11.85-2.82a7,7,0,0,1-.57-2.18c-3.14-.72-8.46,2.74-8.46,2.74Z"/><path class="cls-11" d="M1177.58,558.31c.89,1.77,1.21,6,1.21,6s2.82,4.19,6.93,3,16.12-.64,16.84-1c2.26-1,1.29-3.3,0-5.4-.72-1.2-1.53-2.33-1.93-3.14-1.05-2.17-3.3-7.9-3.3-7.9.32-4.67-3.23-8.62-3.23-8.62l-1.53-9.75c-2.58-2.58-9.75,2-9.75,2l-4.11.48c2.1,4.43-.16,16.76-.16,16.76s-.32,1.05-.64,2.34h0C1177.42,555,1177,557.26,1177.58,558.31Z"/><path class="cls-2" d="M1177.58,558.31c.89,1.77,1.21,6,1.21,6s2.82,4.19,6.93,3,16.12-.64,16.84-1c2.26-1,1.29-3.3,0-5.4-5.48.25-17.72.73-20.46-.24-3.47-1.29-4.27-5.72-4.19-7.49C1177.42,555,1177,557.26,1177.58,558.31Z"/><circle class="cls-20" cx="1184.5" cy="543.81" r="0.81"/><circle class="cls-20" cx="1194.09" cy="543.89" r="0.81"/><circle class="cls-20" cx="1184.5" cy="548" r="0.81"/><circle class="cls-20" cx="1194.25" cy="548.08" r="0.81"/><circle class="cls-20" cx="1186.84" cy="557.51" r="0.81"/><circle class="cls-20" cx="1194.98" cy="557.59" r="0.81"/><circle class="cls-20" cx="1186.44" cy="555.41" r="0.81"/><circle class="cls-20" cx="1194.82" cy="555.41" r="0.81"/><circle class="cls-20" cx="1186.03" cy="552.92" r="0.81"/><circle class="cls-20" cx="1194.01" cy="553" r="0.81"/><circle class="cls-20" cx="1185.23" cy="550.5" r="0.81"/><circle class="cls-20" cx="1194.01" cy="550.5" r="0.81"/><path class="cls-21" d="M1192.41,538.16s-4,4.75-9,1"/><path class="cls-22" d="M1194.1,543.88s-10.39,2.42-9.59,4.11c0,0,9.11-1.21,9.75.08s-9,2.42-9,2.42,7.9,1.21,8.78.08-8,2.42-8,2.42,8-.73,8,.08-7.57,2.41-7.57,2.41,7.09-.64,7.57.09-7,1-7.17,2.09,8.22-.72,8.22.08S1184.59,544,1184.59,544"/><path class="cls-23" d="M1052.21,273.18a17.81,17.81,0,0,0-1.51-2.41c-.36-.5-.76-1-1.21-1.51-.27-.31-.56-.62-.85-.93,2.24-2.54,4.57-5.15,4.54-8.42,0-4-3.55-7-4.87-10.78-1.79-5.11.7-10.59,1.72-15.91a29.81,29.81,0,0,0-6.47-24.54,8.54,8.54,0,0,0-3.78-2.9,7.83,7.83,0,0,0-3.73-.07c-1.18.2-2.37.52-3.55.66-3.48.43-6.82-.61-10.15-1.89-1.53-.6-3.07-1.24-4.61-1.81l-.3-.11A20.35,20.35,0,0,0,1009,201a4.42,4.42,0,0,0-1.56.35,6.54,6.54,0,0,0-2.26,2.56c-2.52,3.71-6.75,5.57-10.95,7.45a5.49,5.49,0,0,0-1.5.68c-1.26.59-2.5,1.21-3.68,1.9-5.87,3.47-6.77,8-4.95,11.73v0a11.55,11.55,0,0,0,2.83,3.59c0,.23-.1.46-.16.68-1.21,4.29-5.36,8.14-4.61,12.59a7.64,7.64,0,0,0,.9,2.44.09.09,0,0,0,0,.06c1.25,2.24,3.29,4.18,4.07,6.6a.15.15,0,0,1,0,.07c.07.22.12.44.17.67a9.9,9.9,0,0,1-1.19,6.15c-8.73,2-18.59,5.72-19.66,12.19,0,.11,0,.23,0,.34-.07.63-.16,1.32-.25,2.07-1.54,13-5.22,41.68-5.22,41.68s-2.74,14.8,3.82,16.63h0c2.09.59,5.12-.14,9.47-3.08l-.23.68-.16.49a149.4,149.4,0,0,0-6.47,29.85c-.19,1.53-.56,2.74-1.23,3.14-.24.14.24.37,1.29.65-.12.43-.25.86-.36,1.3a123.2,123.2,0,0,0-3.79,23A162.26,162.26,0,0,1,960.49,408c-2.23,11.19-2.14,24-1.53,33.77.54,9,1.53,15.36,1.53,15.36l9.34,44,1.59,7.51a11.14,11.14,0,0,0,3.79,2.73c.28,1.21.52,2.44.72,3.67.25,1.48.44,3,.57,4.46a.09.09,0,0,1,0,.05l.06.93a3.85,3.85,0,0,0-2.53,1.39s0,0,0,0a3.55,3.55,0,0,0-.23.31,13.6,13.6,0,0,0-1.95,5,15,15,0,0,1-1.88,4.45l0,.06c-1.42,2.22-3.88,4.86-8.49,8.22a21.14,21.14,0,0,0-2.89,2.48h0a8.61,8.61,0,0,0-2.42,4,4.64,4.64,0,0,0-.11,1,3.9,3.9,0,0,0,.48,1.89,5.49,5.49,0,0,0,1.83,1.89,9.84,9.84,0,0,0,.9.5l.46.21.51.19h0l.49.16h0l.54.14h0l.5.11h.07l.55.09h.06l.5.06h.1l.56,0H965l.5,0h.14l.56,0h.07l.51-.08.13,0,.57-.11h0l.51-.12.15,0,.55-.16h0l.52-.18.14-.05.15-.06.38-.16c8.56-3.75,26.14-13.57,26.14-13.57v-1.86c0-.34,0-.72,0-1.13a75.86,75.86,0,0,0-.56-7.84c-.34-2.34-.85-4.12-1.64-4.12h-.1c-.43.09-.76.51-1.07,1.09-.15.29-.29.62-.44,1l-.12-.23-.1-.19c0-.08-.08-.16-.13-.24a46.73,46.73,0,0,1-3.81-10,26.5,26.5,0,0,1-.74-5.08l.46-.35a28.08,28.08,0,0,0,3.58-3.23s0-.2-.13-.56a0,0,0,0,0,0,0c-.29-1.26-1-4.41-1.63-7.69,0-.18-.07-.36-.1-.54-.67-3.51-1.19-7.06-1-8.51.47-3.28-5.7-28.54-5.7-28.54s.5-4.33,1.49-10.64c.14-.85.28-1.73.43-2.65.1-.6.2-1.2.31-1.83h0c2.17-12.67,5.94-30.09,11.34-39,.16-.28.33-.56.5-.83a1.2,1.2,0,0,1,.11-.17h0c.1-.15.2-.31.31-.46s.24-.37.38-.55l.17-.24.07-.09c.1-.14.21-.27.32-.4a.39.39,0,0,1,.08-.1,0,0,0,0,1,0,0l.07-.08a12.36,12.36,0,0,1,1-1c.18-.15.34-.3.52-.43,0,0,3.95.71,7.8,20.29.23,1.17.45,2.42.68,3.73q.52,3,1,6.4L1010.7,445c.2,2,.48,4,.85,6,.28,1.6.62,3.19,1,4.76a57,57,0,0,1,1.19,17.26c-.52,7.41-.75,16.07-.86,22.41,0,.28,0,.56,0,.84-.06,3.34-.07,5.94-.08,7.22h0v.87a17.45,17.45,0,0,0,2.57,1.8l.29.17v4.29a3.56,3.56,0,0,1-.11.86,3.77,3.77,0,0,1-.46,1h0a3.49,3.49,0,0,1-.42.53,5.09,5.09,0,0,0-.68.92,6.31,6.31,0,0,0-.76,1.72,9.33,9.33,0,0,0-.7,1.6.11.11,0,0,0,0,.05,24.5,24.5,0,0,0-1.11,6.17c-.14,1.88-.27,3.45-.39,4.76-.68,7.49-1,6.47-1,6.47a16.31,16.31,0,0,0-1,3.88h0a2.38,2.38,0,0,0-.06.37c0,.27,0,.55,0,.83v.69a1.69,1.69,0,0,0,0,.28,1.13,1.13,0,0,0,0,.25.32.32,0,0,0,0,.17c0,.06,0,.23.07.34l0,.14a3.37,3.37,0,0,0,.1.34l0,.1a1.88,1.88,0,0,0,.12.3l0,.09c.06.11.12.22.19.33l.05.09.23.3.06.07.29.29,0,0,.33.26.05,0a4,4,0,0,0,.39.23l.08,0a3.8,3.8,0,0,0,.47.18l.07,0a4.07,4.07,0,0,0,1.12.23h.08c.21,0,.42,0,.64,0h1a6.22,6.22,0,0,0,.82-.09c10-1.39,14.73-2.32,14.26-8-.15-1.7-.42-3.78-.73-5.86s-.66-4.13-1-5.81a17.28,17.28,0,0,0-1.58-4.79l-.06-.14c0-.26.05-.52.07-.8a23.74,23.74,0,0,0-.11-5.2,8.42,8.42,0,0,0-.43-1.73l.21-4.09a13.12,13.12,0,0,0,6.43-3.85s.07-3,.27-7.06c.32-6.22.93-14.8,2.1-18.21,1.9-5.61,0-25.27,0-25.27s-.73-3.43-1.5-8.57v0c-1.65-11-3.5-29.72,1-39.58.7-1.53,1.32-3.07,1.85-4.6a43.21,43.21,0,0,0,0-29.27c-.49-1.4-1-2.8-1.68-4.19a2.76,2.76,0,0,0,.3-.29s-1.42-.93-.93-11.7c.35-7.72-1.76-15.67-3-19.55h0c-.07-.26-.15-.48-.22-.7a49.63,49.63,0,0,0,5.51,2l.06,0a9.88,9.88,0,0,0,5.75.22c5.52-1.65,6.11-9.15,6.11-9.15l2.38-18.26,2.82-27.18a10.83,10.83,0,0,0,.62-3.66A13.3,13.3,0,0,0,1052.21,273.18Zm-51.13-22c0,.32,0,.63-.07.95a18.2,18.2,0,0,1-.52,2.84,12.08,12.08,0,0,0,.6-2.79.09.09,0,0,0,0-.05,8.86,8.86,0,0,0,.07-.9ZM1034.64,313a70.85,70.85,0,0,1-.42-8.74c-.21.69-.43,1.33-.67,2v0a44.75,44.75,0,0,1-2.24,5.3,26.63,26.63,0,0,0-2.14,6.38l.94.48h0l.24.12,0-.07c-.12-.29-.28-.57-.42-.85a4.55,4.55,0,0,0,3.3.29h0C1034.27,317.48,1035.05,316.15,1034.64,313Z"/><path class="cls-24" d="M989.59,215.93c-1.51,1-3.11,2.23-3.64,4-.88,2.83,1.31,5.68,1.53,8.64.39,5.38-5.69,9.82-4.8,15.15.62,3.64,4.36,6.12,5.07,9.74,1,5.29-4.68,9.95-4.23,15.31.24,2.87,2.23,5.3,4.49,7.07a21.87,21.87,0,0,0,11,4.5c-.27-4.6-3.68-8.79-3.09-13.36.4-3.13,2.6-5.7,3.88-8.59,2.24-5.07,1.52-10.95.18-16.33s-3.29-10.71-3.38-16.24c-.06-3.34,1.51-8.25.35-11.42C995.53,210.53,992.2,214.15,989.59,215.93Z"/><path class="cls-2" d="M989.59,215.93c-1.51,1-3.11,2.23-3.64,4-.88,2.83,1.31,5.68,1.53,8.64.39,5.38-5.69,9.82-4.8,15.15.62,3.64,4.36,6.12,5.07,9.74,1,5.29-4.68,9.95-4.23,15.31.24,2.87,2.23,5.3,4.49,7.07a21.87,21.87,0,0,0,11,4.5c-.27-4.6-3.68-8.79-3.09-13.36.4-3.13,2.6-5.7,3.88-8.59,2.24-5.07,1.52-10.95.18-16.33s-3.29-10.71-3.38-16.24c-.06-3.34,1.51-8.25.35-11.42C995.53,210.53,992.2,214.15,989.59,215.93Z"/><path class="cls-4" d="M994,526.53l-4.17,4.17s-14.85,7.89-13-2.78a38.09,38.09,0,0,0,.32-9.6,59.59,59.59,0,0,0-2.64-13.14l13.92-2.78c-2.32,7.27,1.5,16.43,3.88,21.1C993.31,525.38,994,526.53,994,526.53Z"/><path class="cls-4" d="M1025.66,518.09c-.1,1.43-.28,2.85-.52,4.26,0,0-11.61,7.89-12.53-.93-.61-5.74.76-8.35,1.79-9.44h0a3.63,3.63,0,0,0,1-2.42V499.15l10.21,3.25-.46,8.81A17.7,17.7,0,0,1,1025.66,518.09Z"/><path class="cls-10" d="M994,526.53l-4.17,4.17s-14.85,7.89-13-2.78a38.09,38.09,0,0,0,.32-9.6c3.25-.46,7.11,3.1,7.11,3.1,5.44,7.68,6.9,4.77,8.05,2.08C993.31,525.38,994,526.53,994,526.53Z"/><path class="cls-25" d="M984.3,522.35s-6.5-6-9.75-1.39.47,8.35-12.06,17.63,0,15.32,8.35,11.61,25.52-13.46,25.52-13.46,0-15.32-2.32-14.85S992.19,533.49,984.3,522.35Z"/><path class="cls-10" d="M1025.66,518.09c-.1,1.43-.28,2.85-.52,4.26,0,0-11.61,7.89-12.53-.93-.61-5.74.76-8.35,1.79-9.44a2.77,2.77,0,0,1,2.85-.3c1.85-.83,3.89.55,5.56,2.32A16.07,16.07,0,0,1,1025.66,518.09Z"/><path class="cls-25" d="M1017.25,512.61s-5.11-2.79-6,9.74-1.39,11.14-1.39,11.14-4.64,11.14,5.11,9.74,14.38-2.32,13.92-7.88c-.28-3.36-1.07-8.24-1.65-11.58a17,17,0,0,0-4.37-8.82C1021.15,513.15,1019.1,511.78,1017.25,512.61Z"/><path class="cls-16" d="M1034,453.21s1.86,19.49,0,25.06c-1.13,3.37-1.74,11.88-2,18.05-.21,4-.28,7-.28,7-8.82,9.29-19,0-19,0s0-3.24.07-8c.1-6.35.32-15.38.85-23.06a57.18,57.18,0,0,0-1.16-17.11,77.35,77.35,0,0,1-1.8-10.7l-1.21-13c-4.18-29.24-9.28-30.16-9.28-30.16-.17.13-.33.27-.5.42-7.13,6.5-11.91,29.52-14.34,44.41-1.25,7.66-1.86,13.17-1.86,13.17s6,25.06,5.57,28.31c-.21,1.51.37,5.32,1.06,9,.79,4.21,1.73,8.2,1.73,8.2-11.61,12.53-19.49,2.79-19.49,2.79l-1.56-7.46-9.12-43.59s-4.17-27.38,0-48.73a161.19,161.19,0,0,0,2.79-20.29,124,124,0,0,1,3.71-22.79c.57-2.21,1.19-4.4,1.88-6.57,1-3.26,17.43-3,33.84-3,12.31,0,24,1.7,27.42,7.67q1.17,2.05,2.13,4.13a44.52,44.52,0,0,1,.19,38.56C1027,419.79,1034,453.21,1034,453.21Z"/><path class="cls-4" d="M995,284.75s-24.59-25.06-6-23.2c4.21.42,7.06-.33,8.95-1.74a9,9,0,0,0,3.3-6.63,27.61,27.61,0,0,0-1.58-10.68s25.06-19.95,20,5.11a42.91,42.91,0,0,0-1,7.74c-.08,5.32,1.67,7.36,4.12,8.19,4.14,1.42,10.3-.56,13.1,4C1040.91,275.93,995,284.75,995,284.75Z"/><path class="cls-10" d="M1019.57,247.63a42.91,42.91,0,0,0-1,7.74,18.21,18.21,0,0,1-2,.58,20,20,0,0,1-15.36-2.78,27.61,27.61,0,0,0-1.58-10.68S1024.67,222.57,1019.57,247.63Z"/><path class="cls-4" d="M1032.1,235.56a20,20,0,1,1-39.91,0c0-.37,0-.74,0-1.11a20,20,0,0,1,39.88,1.11Z"/><path class="cls-10" d="M995,284.75s-24.59-25.06-6-23.2c4.21.42,7.06-.33,8.95-1.74-3.6,6-7.64,16.67,10.54,15.66,16.64-.93,16.35-7.55,14.28-11.91,4.14,1.42,10.3-.56,13.1,4C1040.91,275.93,995,284.75,995,284.75Z"/><path class="cls-2" d="M1034,368.75c-4.22,5.49-58.05-1.71-65.92-4.1q.84-3.31,1.88-6.58c1-3.26,17.43-3,33.84-3,12.3,0,24,1.71,27.42,7.67.78,1.38,1.49,2.75,2.12,4.13C1033.59,368.51,1034,368.75,1034,368.75Z"/><path class="cls-26" d="M1000.08,257.37s-31.33,2.55-32.72,14.62C966,283.53,962,315.38,962,315.38s-4.64,25.52,13,13.46l-.23.68a150.2,150.2,0,0,0-6.47,30.08c-.19,1.52-.54,2.72-1.2,3.11-2.32,1.4,62.19,10.68,66.83,4.64,0,0-1.39-.92-.93-11.6s-3.71-21.81-3.71-21.81-3.72-11.14,1.39-21.81,3.25-13.92,3.25-13.92l17.63-13.46s3.81-6.53-3.15-14.58a24.11,24.11,0,0,0-16.58-8.17l-12.16-.88S1033,275.46,1008,276.85,1000.08,257.37,1000.08,257.37Z"/><path class="cls-10" d="M979.19,282.9s.93,7.42-.93,9.74-2.32,13,0,19.49Z"/><path class="cls-2" d="M999.58,401.65c-7.13,6.5-11.91,29.52-14.34,44.41-3.38-20.73,10.67-55,10.67-55Z"/><path class="cls-2" d="M991.72,504.72c-11.6,12.53-19.49,2.78-19.49,2.78l-1.56-7.45c4.39,2.28,11.8,4.05,19.33-3.53C990.79,500.73,991.72,504.72,991.72,504.72Z"/><path class="cls-2" d="M1031.91,496.32c-.21,4-.28,7-.28,7-8.82,9.29-19,0-19,0s0-3.24.07-8A19.12,19.12,0,0,0,1031.91,496.32Z"/><rect class="cls-27" x="981.51" y="298.67" width="31.56" height="12.99" rx="1.74" ry="1.74"/><rect class="cls-10" x="981.51" y="298.67" width="31.56" height="12.99" rx="1.74" ry="1.74"/><rect class="cls-27" x="981.51" y="299.14" width="31.56" height="12.99" rx="1.74" ry="1.74"/><circle class="cls-28" cx="1006.34" cy="305.4" r="1.39"/><path class="cls-10" d="M968.08,319.25a9,9,0,0,1,5.25-5.52,8.21,8.21,0,0,0,4.5-4c1.83-4.06,5.08-8.23,13.43-5.45s-2.32,4.64-2.32,4.64,19-2.78,11.6,2.79a70.93,70.93,0,0,1-16.71,8.81l-4.57,4.84a6.83,6.83,0,0,1-10.21-.2A5.92,5.92,0,0,1,968.08,319.25Z"/><path class="cls-4" d="M967.62,318.32a9.06,9.06,0,0,1,5.24-5.52,8.14,8.14,0,0,0,4.5-4c1.83-4.05,5.08-8.23,13.43-5.45s-2.32,4.64-2.32,4.64,19-2.78,11.61,2.79a71.18,71.18,0,0,1-16.71,8.82l-4.57,4.84a6.84,6.84,0,0,1-10.21-.21A5.92,5.92,0,0,1,967.62,318.32Z"/><path class="cls-10" d="M1033,327.91l-3.24,7.89-4.18-3.06L1014,324.2l-7.89-5.11c-11.14-8.35,0-9.74,0-9.74-4.18-1.86,0-3.72,0-3.72,14.85-3.24,12.06,8.82,12.06,8.82l9.41,4.88,3.12,1.62Z"/><path class="cls-4" d="M1034,327l-3.25,7.89-4.17-3.06-11.6-8.54-7.89-5.11c-11.14-8.35,0-9.74,0-9.74-4.18-1.86,0-3.71,0-3.71,14.85-3.25,12.06,8.81,12.06,8.81l9.41,4.88,3.12,1.62Z"/><path class="cls-10" d="M1034,327l-3.25,7.89-4.17-3.06c3.76.14,8.21-1.68,2-13.41l3.12,1.62Z"/><path class="cls-26" d="M1051.12,280.11l.9,3.65-2.75,27-2.32,18.1s-.93,12.06-11.61,8.81-11.6-6.49-11.6-6.49,15.32,5.1,5.57-13c0,0,5.57,2.79,4.64-4.64s0-20.42,0-20.42Z"/><path class="cls-10" d="M1032.1,235.56A20,20,0,0,1,1016.55,255a10.13,10.13,0,0,1-.65-5.8c.93-3.79,5.32-6.56,4.83-10.43a2.67,2.67,0,0,0-.46-1.22c-1-1.29-3-.65-4.56-.33a8.67,8.67,0,0,1-9.71-6,13.56,13.56,0,0,1-13.8,3.2,20,20,0,0,1,39.87,1.11Z"/><path class="cls-24" d="M1006.48,230.33a8.68,8.68,0,0,0,9.71,6c1.59-.32,3.58-1,4.56.33a2.54,2.54,0,0,1,.44,1.21c.49,3.88-3.88,6.64-4.83,10.44s1.86,7.68,2.49,11.66a43.93,43.93,0,0,1,0,6.59c0,2.2.52,4.57,2.15,6s4.64,1.5,5.74-.41c5.22,2.76,3.14,11.31,7.1,15.69,2.19,2.41,5.78,3,9,2.68a3.82,3.82,0,0,0,2.12-.68,3.76,3.76,0,0,0,1-2,15.76,15.76,0,0,0-.41-9.39c-.52-1.44-1.26-2.9-1.07-4.42a6.51,6.51,0,0,1,1.61-3.15c2.49-3.09,5.9-6.08,5.87-10.06s-3.46-7-4.75-10.67c-1.75-5.07.68-10.5,1.68-15.78a29.93,29.93,0,0,0-6.32-24.36,8.29,8.29,0,0,0-3.71-2.87c-2.29-.74-4.72.29-7.11.58-7.89,1-15-5.91-23-5.29a4.21,4.21,0,0,0-1.52.35,6.61,6.61,0,0,0-2.22,2.54c-3.49,5.22-10.36,6.71-15.74,10C973.68,224.79,994.46,241.9,1006.48,230.33Z"/><path class="cls-29" d="M970.84,548.34c-5.43,2.41-12.6.71-13.55-3.31-1.13,5.31,7.35,7.92,13.55,5.17,8.35-3.72,25.52-13.46,25.52-13.46s0-.72,0-1.86C995.84,535.18,979.07,544.66,970.84,548.34Z"/><path class="cls-29" d="M1028.82,535.08c-.53,4.17-5.16,5-13.89,6.3-4.45.63-5.89-1.34-6.16-3.67-.29,3,.55,6.32,6.16,5.52,9.74-1.39,14.38-2.32,13.92-7.88C1028.84,535.26,1028.83,535.16,1028.82,535.08Z"/><path class="cls-30" d="M1117.63,455h-9.5V416.51h3.15v-3.58h-35.57v3.58h3.52V455h-9.86A12.17,12.17,0,0,0,1057,466.88v58.87a12,12,0,0,0,7.84,11.09,4.36,4.36,0,0,0,0,.72,5.51,5.51,0,0,0,2,4h0a5.4,5.4,0,0,0,3.79,1.29,5.54,5.54,0,0,0,5.19-4.52,4.76,4.76,0,0,0,.09-.66h36a4.37,4.37,0,0,0,.09.5,5.55,5.55,0,0,0,8.81,3.21l0,0a5.55,5.55,0,0,0,2.14-4.16c0-.19,0-.39,0-.59,0,0,0-.05,0-.08s.31-.14.45-.22l0,0a11.18,11.18,0,0,0,2.61-1.76h0a12,12,0,0,0,4-8.78V466.88A12.15,12.15,0,0,0,1117.63,455Zm-35.42-38.45V455h23V416.51Z"/><rect class="cls-31" x="1079.79" y="416.49" width="2.85" height="44.15"/><rect class="cls-31" x="1104.71" y="416.49" width="2.85" height="44.15"/><rect class="cls-31" x="1076.41" y="414.35" width="34.19" height="3.56"/><rect class="cls-32" x="1058.42" y="456.26" width="70.15" height="82.48" rx="21.49" ry="21.49"/><circle class="cls-31" cx="1071.22" cy="538.62" r="5.33"/><circle class="cls-33" cx="1071.22" cy="538.62" r="2.22"/><circle class="cls-31" cx="1116.48" cy="538.27" r="5.33"/><circle class="cls-33" cx="1116.48" cy="538.27" r="2.22"/><path class="cls-2" d="M1115.73,456.37h-44.46a12.8,12.8,0,0,0-9,3.74,12.73,12.73,0,0,1,6.21-1.62h44.45a12.85,12.85,0,0,1,12.85,12.85h0v56.78a12.79,12.79,0,0,1-3.8,9.11,12.85,12.85,0,0,0,6.65-11.25V469.21A12.86,12.86,0,0,0,1115.73,456.37Z"/><circle class="cls-2" cx="1093.32" cy="497.32" r="12.1"/><ellipse class="cls-1" cx="1095.77" cy="550.99" rx="33.85" ry="201.31" transform="translate(463.79 1602.13) rotate(-85.68)"/><ellipse class="cls-1" cx="1191.17" cy="556.76" rx="13.54" ry="61.48" transform="translate(577.06 1719.4) rotate(-87.21)"/><ellipse class="cls-1" cx="996.17" cy="540.76" rx="13.54" ry="61.48" transform="translate(407.54 1509.41) rotate(-87.21)"/><ellipse class="cls-1" cx="1093.54" cy="537.81" rx="8.61" ry="39.09" transform="translate(503.12 1603.86) rotate(-87.21)"/></g></g></svg>