<svg xmlns="http://www.w3.org/2000/svg" xmlns:xlink="http://www.w3.org/1999/xlink" viewBox="0 0 1363 699.07"><defs><style>.cls-1{font-size:15px;font-family:MyriadPro-Regular, Myriad Pro;}.cls-2{fill:#5985c4;}.cls-10,.cls-2,.cls-21{opacity:0.1;}.cls-10,.cls-14,.cls-2,.cls-5{isolation:isolate;}.cls-3{fill:#85848b;}.cls-4{fill:#504f60;}.cls-5{opacity:0.2;}.cls-6{fill:#484b9f;}.cls-7{fill:#514e7f;}.cls-8{fill:#464353;}.cls-9{fill:#a1616a;}.cls-11{fill:#33323d;}.cls-12{fill:#8dd070;}.cls-13{fill:#fbbebe;}.cls-14,.cls-18{opacity:0.05;}.cls-15{fill:#3f3d56;}.cls-16{fill:url(#linear-gradient);}.cls-17{fill:#2d293d;}.cls-19{fill:#ffcdd3;}.cls-20{fill:#575988;}</style><linearGradient id="linear-gradient" x1="1147.79" y1="9081.48" x2="1147.79" y2="9341.21" gradientTransform="matrix(1, 0, 0, -1, -84.46, 9525.91)" gradientUnits="userSpaceOnUse"><stop offset="0" stop-color="gray" stop-opacity="0.25"/><stop offset="0.54" stop-color="gray" stop-opacity="0.12"/><stop offset="1" stop-color="gray" stop-opacity="0.1"/></linearGradient></defs><title>BGMoto</title><g id="Layer_2" data-name="Layer 2"><g id="Partner"><text class="cls-1" transform="translate(340 654.07)"><tspan xml:space="preserve">  </tspan></text><path class="cls-2" d="M1291.58,316.24c-15.25,22.62-26,49.77-15.53,74.14,13.35,31,54.25,45.31,87,65.24V576c-15.83,7-34,10.79-51.85,13.52-47.41,7.26-95.82,8.67-144,10.06-130.22,3.75-260.79,7.51-390.67-1.16-58.69-3.91-118.84-10.81-169.9-34.95-25.14-11.88-48.35-28.76-58.09-51.28-9.82-22.69-4.63-48.2,6.61-70.43s28.11-42.18,42.66-63.09c31-44.55,51.25-100.82,22.63-146.45-8.23-13.11-20.13-24.62-26.83-38.31C583.9,174.2,586,152,589.49,131c4.69-28,13.4-58.14,40.34-75.66.66-.43,1.32-.84,2-1.24,27.88-16.87,66.58-15.85,100.52-9.5,13.59,2.54,26.92,5.77,40,9.5,39.1,11.09,76.53,26.51,114.22,40.78,50.35,19.06,103.08,36.48,158.45,38.35,48.88,1.66,105.9-10.73,138.37-42.91,31.5-31.27,90.73-33.63,133.45-14.76A116.65,116.65,0,0,1,1363,111.7V224.13C1343.39,255.77,1312.82,284.75,1291.58,316.24Z"/><ellipse class="cls-2" cx="852.85" cy="40.37" rx="18.5" ry="18.04"/><ellipse class="cls-2" cx="194.85" cy="68.37" rx="18.5" ry="18.04"/><ellipse class="cls-2" cx="675.28" cy="681.04" rx="18.5" ry="18.04"/><ellipse class="cls-2" cx="1134.38" cy="65.26" rx="18.5" ry="18.04"/><ellipse class="cls-2" cx="35.38" cy="274.26" rx="18.5" ry="18.04"/><ellipse class="cls-2" cx="1301.15" cy="370" rx="18.5" ry="18.04"/><ellipse class="cls-2" cx="504.28" cy="111.71" rx="18.5" ry="18.04"/><path class="cls-2" d="M26.79,487.71a18.28,18.28,0,0,1-18.51,18A18.8,18.8,0,0,1,0,503.83V471.58a18.8,18.8,0,0,1,8.28-1.91A18.28,18.28,0,0,1,26.79,487.71Z"/><ellipse class="cls-2" cx="570.47" cy="31.3" rx="31.01" ry="30.23"/><path class="cls-2" d="M20.48,111.3A30.3,30.3,0,0,1,0,139.74V82.85A30.3,30.3,0,0,1,20.48,111.3Z"/><ellipse class="cls-2" cx="985.33" cy="68.81" rx="31.01" ry="30.23"/><ellipse class="cls-2" cx="561.08" cy="304.23" rx="31.01" ry="30.23"/><ellipse class="cls-2" cx="518.62" cy="578.71" rx="31.01" ry="30.23"/><ellipse class="cls-2" cx="308.62" cy="528.71" rx="31.01" ry="30.23"/><ellipse class="cls-2" cx="47.62" cy="588.71" rx="31.01" ry="30.23"/><rect class="cls-3" x="687.95" y="510.72" width="557.87" height="4.08"/><path class="cls-4" d="M1129.93,438.74c0,3.13-18.28,12.27-40,12.27s-38.63-9.14-38.63-12.27,17.59-2.13,39.33-2.13S1129.93,435.59,1129.93,438.74Z"/><path class="cls-5" d="M1129.93,438.74c0,3.13-18.28,12.27-40,12.27s-38.63-9.14-38.63-12.27Z"/><path class="cls-6" d="M911.27,381.19c3.52.46,7.18.74,10.55-.35.53-.17,1.12-.53,1.07-1.06a1.32,1.32,0,0,0-.24-.54,32.83,32.83,0,0,1-3.19-6.07.56.56,0,0,0-.2-.28.5.5,0,0,0-.34,0c-1.56.41-2.9,1.42-4.45,1.85a6.59,6.59,0,0,1-2.42.18c-.7-.08-1.66-.66-2.3-.59C910.11,376.66,911,378.82,911.27,381.19Z"/><path class="cls-6" d="M977.91,375.31c2.33-1.59,4.73-3.27,6.11-5.73a1.09,1.09,0,0,0,.16-.49.93.93,0,0,0-.2-.48,19.45,19.45,0,0,0-5-5.35,14.49,14.49,0,0,0-2.76,2.55c-.58.61-2.2,1.59-2.22,2.53,0,.53.62,1.15.91,1.6s.75,1.16,1.1,1.75C976.26,372,978.1,375.19,977.91,375.31Z"/><path class="cls-7" d="M925.08,388.31a2.4,2.4,0,0,1-.42,1.54,2,2,0,0,1-.9.53c-4.92,1.77-10.63-.43-15.54,1.31-1,.35-2,.87-3,1.21a16.68,16.68,0,0,1-3.72.66c-1.73.16-3.48.27-5.23.32a12.77,12.77,0,0,1-3.94-.35,4.7,4.7,0,0,1-3-2.4,2.28,2.28,0,0,1-.15-1.7,1.51,1.51,0,0,1,.32-.53,4.36,4.36,0,0,1,1.16-.94l1.81-1.17a12.1,12.1,0,0,1,2.75-1.46c.72-.23,1.48-.34,2.21-.53,2.54-.75,4.49-2.77,6.29-4.71l2.47-2.63a2.39,2.39,0,0,1,.86-.68,2.24,2.24,0,0,1,1.06-.1,14.12,14.12,0,0,1,6.72,2.25,8.94,8.94,0,0,0,1.66,1,5.92,5.92,0,0,0,4.64-.58c.63-.34.49-.53.76-1.13s.91-1,1.47-.44a1.54,1.54,0,0,1,.35.67,18.51,18.51,0,0,1,.33,5.47,2.51,2.51,0,0,0,.11.86,5.62,5.62,0,0,0,.48.78,2,2,0,0,1,.11.2A5.51,5.51,0,0,1,925.08,388.31Z"/><path class="cls-8" d="M925.08,388.31a2.4,2.4,0,0,1-.42,1.54,2,2,0,0,1-.9.53c-4.92,1.77-10.63-.43-15.54,1.31-1,.35-2,.87-3,1.21a16.68,16.68,0,0,1-3.72.66c-1.73.16-3.48.27-5.23.32a12.77,12.77,0,0,1-3.94-.35,4.7,4.7,0,0,1-3-2.4,2.28,2.28,0,0,1-.15-1.7,1.51,1.51,0,0,1,.32-.53c.29.6.5,1.39.68,1.68a3.41,3.41,0,0,0,2.3,1.66,5.51,5.51,0,0,0,2.13-.27c4.46-1.1,9.21-1.12,13.5-2.79a31.22,31.22,0,0,1,4.42-1.7,34.51,34.51,0,0,1,4.79-.39c2.51-.2,5-1,7.44-1.36A5.41,5.41,0,0,1,925.08,388.31Z"/><path class="cls-7" d="M989.2,375a9,9,0,0,1-2.72,4.84,31.19,31.19,0,0,0-3.81,4.17c-1.28,1.95-1.85,4.37-3.51,6a9.35,9.35,0,0,1-2.13,1.51,14.46,14.46,0,0,1-2.74,1.26,20.46,20.46,0,0,1-7.73.42,7.06,7.06,0,0,1-2.45-.47,7.28,7.28,0,0,1-1-.63,4.93,4.93,0,0,1-1.59-1.59,1.57,1.57,0,0,1-.15-1.16,2.65,2.65,0,0,1,.74-1.13,16.6,16.6,0,0,1,1.87-1.68,11.24,11.24,0,0,0,2.43-2.13,6.89,6.89,0,0,0,.94-2.13,18.64,18.64,0,0,0,.69-4.06,12.37,12.37,0,0,1,.28-2.72c.39-1.41,1.43-2.66,1.32-4.11a1,1,0,0,1,0-.62.88.88,0,0,1,.49-.31,8.86,8.86,0,0,1,2.54-.59,3,3,0,0,1,2.36.93c.36.43.6,1.06,1.13,1.23a1.84,1.84,0,0,0,.81,0,6.69,6.69,0,0,0,3.72-1.14,4.64,4.64,0,0,0,1.54-3.38c0-.49-.22-1,.53-1.07.57-.07,1,.53,1.3.91a12.48,12.48,0,0,1,2.49,4.52,1.51,1.51,0,0,1,.47-.09,2.09,2.09,0,0,1,1.7.87A3.43,3.43,0,0,1,989.2,375Z"/><path class="cls-8" d="M989.2,375a9,9,0,0,1-2.72,4.84,31.19,31.19,0,0,0-3.81,4.17c-1.28,1.95-1.85,4.37-3.51,6a9.35,9.35,0,0,1-2.13,1.51,14.46,14.46,0,0,1-2.74,1.26,20.46,20.46,0,0,1-7.73.42,7.06,7.06,0,0,1-2.45-.47,7.28,7.28,0,0,1-1-.63,4.93,4.93,0,0,1-1.59-1.59,4,4,0,0,1,1.59-.39c1.15.07,2,1.15,3.09,1.49,1.57.47,3.13-.64,4.72-1,1-.25,2.13-.18,3.15-.53a7.69,7.69,0,0,0,2.34-1.42,11.8,11.8,0,0,0,2.49-2.4,15.32,15.32,0,0,0,1.46-2.92,41,41,0,0,1,3-5.65,3.83,3.83,0,0,1,.6-.79,8,8,0,0,1,.81-.59,6.19,6.19,0,0,0,1.88-3.42,5.86,5.86,0,0,1,.42-1.15,2.07,2.07,0,0,1,1.69.87A3.38,3.38,0,0,1,989.2,375Z"/><path class="cls-9" d="M877.75,209.27a11.17,11.17,0,0,1,3.18,3.72c.75,1.46,5,12.76,4.79,14.4,1.4-1.41,6.91-1.64,8.32-3,.59-.59,3.77-3.53,4.25-4.22s4-2.12,4.42-2.84c1.45-2.6-10.29-12.45-8.79-15a.66.66,0,0,0,.13-.4.83.83,0,0,0-.2-.32,17.75,17.75,0,0,0-3.4-2.32,5.35,5.35,0,0,1-2.58-3.08,11.15,11.15,0,0,0-3,2c-2.15,1.84-4.27,3.73-6.35,5.65-.81.75-2.39,1.76-2.76,2.84S877,208.64,877.75,209.27Z"/><path class="cls-7" d="M896.75,205.09a35.39,35.39,0,0,0-5,4.11,10.1,10.1,0,0,0-3.19,5.13c-.14.79-.12,1.59-.25,2.39-.53,3.48-3.53,6-4.86,9.29a16.1,16.1,0,0,0-.85,3.11,36.88,36.88,0,0,0-.61,6.1c0,2,1.91,3.35,2.63,5.2a32,32,0,0,1,1.26,5.65A66.51,66.51,0,0,0,889,256.54c2.62,7.24,11.11,27.25,13.73,34.5,8-2,29.41-6.64,36.52-10.89,2.37-1.42-16.45-17.37-13.91-18.47a.94.94,0,0,0,.79-1.08.81.81,0,0,0-.08-.25c-2.53-11.09-10.46-20.2-14.06-31-1.25-3.75-3.49-7-5.2-10.51-1.54-3.23-2.36-6.79-4.2-9.86a6.44,6.44,0,0,0-1.35-1.68,8,8,0,0,0-1.48-.89C898.75,205.91,897.77,205.6,896.75,205.09Z"/><circle class="cls-9" cx="878.17" cy="195.44" r="12.57"/><path class="cls-8" d="M891,201.35a4.18,4.18,0,0,1,4.72-.68,2.29,2.29,0,0,1,1.41,2.27l6.23.09a12.27,12.27,0,0,1,3,.27,4.26,4.26,0,0,1,2.46,1.55c.08.1.16.22.29.24a.46.46,0,0,0,.29-.1,5.45,5.45,0,0,1,3.1-.53,16.76,16.76,0,0,1,9.13,4,3,3,0,0,1,1.06,1.32c.22.71,0,1.6.53,2.1,0,5.85,2,11.31,3.35,17a7.65,7.65,0,0,0,1.89,2.71,10.93,10.93,0,0,1,2,3c1.14,2.95-.43,6.43.68,9.4a16,16,0,0,0,2.12,3.37,8.67,8.67,0,0,1,1.82,4.36c0,.71,0,1.43,0,2.13a13,13,0,0,0,.53,2.82c.46,1.71.93,3.43,1.43,5.14.8,2.76,1.86,5.74,4.33,7.22-6,1-12.28,2-18-.07a9.07,9.07,0,0,1-2.24-1.13c-2.06-1.46-3.05-4-3.94-6.34a29.83,29.83,0,0,1-2.19-8.19,9.55,9.55,0,0,0-.38-2.66c-.58-1.54-2.13-2.47-3.53-3.33a16.86,16.86,0,0,1-4.25-3.3,6.65,6.65,0,0,1-1.73-5c.11-.87.46-1.72.49-2.6a2.05,2.05,0,0,0-1.21-2.13c-4.35-1.32-6.43-6.47-7.4-10.91a35.38,35.38,0,0,1-.55-7l-.06-4.53a6,6,0,0,1-2-4.3,4.9,4.9,0,0,0,0-1.43,3.92,3.92,0,0,0-1-1.51A13.55,13.55,0,0,1,891,201.35Z"/><path class="cls-8" d="M877.57,215.72c-.14,1.4.18,2.84-.14,4.22-.12.53-.33,1.06-.49,1.56a9.18,9.18,0,0,0,.58,5.91,32.89,32.89,0,0,0,3,5.24,8.26,8.26,0,0,1,1,1.81,9.68,9.68,0,0,1,.38,2.07,64,64,0,0,0,1.47,8.35c.6,2.38,7.36,22.74,8.93,24.63a2,2,0,0,0,1.21.82,2.34,2.34,0,0,0,1-.21l3.18-1.22a2,2,0,0,0,.74-.41,1.91,1.91,0,0,0,.46-1.25c.23-2.6-6.55-23.1-7.41-25.55-2.6-7.4-6.07-14.53-7.76-22.19-.48-2.12-.73-5.4-2.28-7.09-.65-.7-.43-.41-1.2,0a9.32,9.32,0,0,0-1.13.59A3.69,3.69,0,0,0,877.57,215.72Z"/><path class="cls-6" d="M887.25,229.76c.85,4.52,1.74,9,2.61,13.55l12.48-3.26a8.81,8.81,0,0,0-1.06-3.73c-1.14-2.85-1.16-6-2.08-9-.7-2.23-1.91-4.29-2.56-6.53-.38-1.31-.57-2.66-.95-4a28.32,28.32,0,0,0-1.46-3.8,24.29,24.29,0,0,0-2.72-5c-1.6.6-3.3,1.29-4.21,2.73a5.89,5.89,0,0,0-.77,2.65c-.22,2.81.79,5.62.46,8.41A24.52,24.52,0,0,0,887.25,229.76Z"/><path class="cls-8" d="M902.55,289.92c.7,2.66-.31,5.46-1.14,8.09a62.4,62.4,0,0,0-2.54,12.17,10.83,10.83,0,0,1-.63,3.08c-.39.88-1.06,1.63-1.52,2.48-1.25,2.22-1.22,4.93-1,7.47.18,1.68.45,3.34.79,5,.4,2,.91,4.12.32,6.09,1-.22,1.66,1.06,1.59,2.07s-.38,2.12.1,3c1.22.44,1.23,2.12,1.2,3.43a28.52,28.52,0,0,0,.85,6.69q2.77,13.35,5.89,26.61c4.49,1.39,9.73,2.84,14,.92a2.84,2.84,0,0,0,1.77-1.79,3.05,3.05,0,0,0-.17-1.37l-2-7.39a13.65,13.65,0,0,1-.73-5.46c.2-1.37.8-2.84.13-4.05-.23-.41-.59-.74-.86-1.13-1.06-1.56-.51-3.64-.42-5.53a4.44,4.44,0,0,0-.09-1.26,5.9,5.9,0,0,0-.6-1.39,21.28,21.28,0,0,1-2.34-10.56,2.58,2.58,0,0,0-.19-1.37,5.36,5.36,0,0,1-.34-.57,1.53,1.53,0,0,1,.11-1,9.2,9.2,0,0,1-1.64-1.6,2.28,2.28,0,0,0,.74-3.15,2.38,2.38,0,0,0-.34-.43,1.2,1.2,0,0,0,.93-1.41,1.27,1.27,0,0,0-.36-.65c-.27-.18-.61-.26-.8-.53s0-.94.18-1.36l1.24-2.24c.93-1.66,1.13-3.72,2.13-5.31a40.09,40.09,0,0,0,3.27-7.47l3.58-9.87,2.41,2.08a7.62,7.62,0,0,1,2,2.26,9.6,9.6,0,0,1,.65,2.7c.88,5.36,4.25,10,5.5,15.28a10,10,0,0,0,1.14,3.41,7.85,7.85,0,0,1,.64,1,5.25,5.25,0,0,1,.28,1.62,7.53,7.53,0,0,0,3.19,5.42c1.18.82,2.65,1.37,3.3,2.66a4.32,4.32,0,0,0,.53,1.13c.57.69,1.81.77,2.05,1.64.14.48-.11,1.06.16,1.49a1.43,1.43,0,0,0,.59.44l3.46,1.73c3.87,1.93,5.85,6.37,8.7,9.61a20.26,20.26,0,0,1,2.6,3.45c1.24,2.2,1.81,5,3.89,6.37a5.93,5.93,0,0,1,1.51,1.12c.65.87.41,2.07.47,3.16s.89,2.37,1.92,2a7.62,7.62,0,0,0,0,4,20.29,20.29,0,0,0,12.26-5,4.83,4.83,0,0,0,2-3.35,1.17,1.17,0,0,0-.15-.66,1.82,1.82,0,0,0-.78-.59c-3.24-1.76-4.21-5.82-5.85-9.12-1.43-2.91-3.54-5.42-5.31-8.13-3.85-5.82-6.48-12.86-12.3-16.7-1.28-.85-2.76-1.6-3.41-3-.35-.78-.4-1.67-.68-2.48a2.14,2.14,0,0,0-1.82-1.59,11.08,11.08,0,0,0,.42-3.86,5,5,0,0,0-.19-1.67A7.77,7.77,0,0,0,952,315a15.78,15.78,0,0,1-2.19-8.51,13.77,13.77,0,0,0-.15-4.58c-.23-.74-.64-1.42-.92-2.13a13.26,13.26,0,0,1-.67-4l-.32-5.11a24.6,24.6,0,0,0-.65-5.05c-1.07-4-2.13-20.57-5.77-22.44s-9.9,10.91-14,11.16a18.18,18.18,0,0,0-5.31,1,25.88,25.88,0,0,0-7.24,4.78l-7.54,6.33A27.43,27.43,0,0,1,902.55,289.92Z"/><path class="cls-8" d="M866.38,181.48a9.45,9.45,0,0,1,7.31-3.56,17,17,0,0,1,8.08,2,10.26,10.26,0,0,0,2.36,1c1.33.28,2.81-.09,4,.54,1.6.84,1.9,3,1.77,4.78s-.48,3.77.47,5.31a12.37,12.37,0,0,1,.92,1.39,4.63,4.63,0,0,1-.07,3,21.22,21.22,0,0,1-1.53-1.95,1.79,1.79,0,0,0-2.2-.57c-.68.46-.67,1.3-.71,2s-.23,1.66-.94,1.91a1.52,1.52,0,0,1-1.59-.62c-1.22-1.49-.73-3.87-1.94-5.37-.68-.85-1.83-1.26-2.46-2.16-.5-.7-.63-1.59-1.06-2.34s-1.45-1.31-2.13-.79a3,3,0,0,0-.57.76,3.27,3.27,0,0,1-3.88,1.17,6.44,6.44,0,0,0-1.68-.73,2.08,2.08,0,0,0-1.92,1.06,4.22,4.22,0,0,0-.53,2.22c0,1.07.19,2.2-.41,3.05a3.28,3.28,0,0,1-.85.81c-.89.57-2.13,1-3,.3a2.23,2.23,0,0,1-.66-2.06,16.46,16.46,0,0,1,.63-2.18c.47-1.65-.14-3.5.37-5A16,16,0,0,1,866.38,181.48Z"/><path class="cls-6" d="M873.11,219a1.5,1.5,0,0,0,.74,1.76,12.86,12.86,0,0,0,5.93,1.91,1.79,1.79,0,0,1,.81.22,1.42,1.42,0,0,1,.35,1.64,4.29,4.29,0,0,0-.38,1.76c.16,1.11,1.47,1.59,2.59,1.76a6,6,0,0,0,4.49-.88,7,7,0,0,0,1.86-2.78c3-7,4.12-14.76,7.2-21.75a4.65,4.65,0,0,0,.47-1.45,1.45,1.45,0,0,0-.58-1.34c-.57-.36-1.46-.16-1.85-.72-.19-.28-.17-.66-.34-1-.36-.63-1.29-.53-1.93-.9s-.85-.81-1.41-.92a1.77,1.77,0,0,0-1.45.63c-1.81,1.69-2.76,4.09-3.77,6.35a75,75,0,0,1-5.4,10c.24-.38-1.15-3.19-1.69-3.32-1-.19-2.17,1.48-2.68,2.1A13.4,13.4,0,0,0,873.11,219Z"/><path class="cls-10" d="M892.42,197.75a2.51,2.51,0,0,0-2,1,5.67,5.67,0,0,0-.83,2.65,22.91,22.91,0,0,1-3.13,8.41Z"/><path class="cls-10" d="M895.13,199.87a3,3,0,0,0-2.58,1.55,8.76,8.76,0,0,0-.65,2.62,14.33,14.33,0,0,1-2.57,5.52Z"/><path class="cls-11" d="M1021.45,303.78v-6.6a18.33,18.33,0,0,0-18.33-18.32H742.42a18.32,18.32,0,0,0-18.32,18.32v12.17Z"/><path class="cls-12" d="M815,271.12s-.75,46.17,7.44,61.36,11.69,81.27,11.69,81.27,85.81,8.88,145.6-10.63,187-27.49,187-27.49l-21.44-144.51s-105.92-6.79-166.18,21.95S815,271.12,815,271.12Z"/><path class="cls-10" d="M815,271.12s-.75,46.17,7.44,61.36,11.69,81.27,11.69,81.27,85.81,8.88,145.6-10.63,187-27.49,187-27.49l-21.44-144.51s-105.92-6.79-166.18,21.95S815,271.12,815,271.12Z"/><path class="cls-12" d="M833.94,288s-2.69,38.1,4,50.27,7,66.51,7,66.51,77.22,3.58,132.15-15.12,170.37-30.83,170.37-30.83l-13.12-118.18s-95.51-1-151.26,25.34S833.94,288,833.94,288Z"/><ellipse class="cls-10" cx="977.02" cy="325.33" rx="20.05" ry="43" transform="translate(-32.72 123.26) rotate(-7.1)"/><path class="cls-5" d="M1087.2,160.72s-102.91,26.05-151.43,71.89-150.69,67.55-150.69,67.55,13.46,44.16,25.91,56.11,36,73.78,36,73.78,84.39-17.9,135.31-54.82,169.59-83.57,169.59-83.57Z"/><path class="cls-12" d="M783.53,293.55s13.46,44.17,25.89,56.11,36.06,73.77,36.06,73.77,84.4-17.88,135.33-54.81,169.58-83.56,169.58-83.56l-64.74-130.94s-102.9,26-151.43,71.88S783.53,293.55,783.53,293.55Z"/><path class="cls-10" d="M783.53,293.55s13.46,44.17,25.89,56.11,36.06,73.77,36.06,73.77,84.4-17.88,135.33-54.81,169.58-83.56,169.58-83.56l-64.74-130.94s-102.9,26-151.43,71.88S783.53,293.55,783.53,293.55Z"/><path class="cls-12" d="M806.77,303.77s9.13,37.09,19.28,46.6,27.11,61.13,27.11,61.13,74.59-20.3,121.13-54.95S1127,275,1127,275l-48.74-108.5S987.05,194.85,942.06,237,806.77,303.77,806.77,303.77Z"/><ellipse class="cls-10" cx="954.42" cy="295.41" rx="20.05" ry="43" transform="translate(-35.5 430.52) rotate(-24.97)"/><path class="cls-10" d="M1028.49,310.26V493.63a15.86,15.86,0,0,1-15.86,15.86H740a15.86,15.86,0,0,1-15.85-15.86V291.77c7.81,2.9,7.81,2.9,15.85,2.66h272.67A15.87,15.87,0,0,1,1028.49,310.26Z"/><path class="cls-4" d="M1028.49,312.59V496a15.87,15.87,0,0,1-15.86,15.86H740A15.86,15.86,0,0,1,724.11,496V294.1c7.81,2.9,7.81,2.9,15.85,2.66h272.67A15.86,15.86,0,0,1,1028.49,312.59Z"/><path class="cls-10" d="M1027.71,380.39V439H970.84a29.32,29.32,0,0,1,0-58.64Z"/><path class="cls-11" d="M1028.49,378.82v58.66H971.62a29.33,29.33,0,0,1,0-58.65Z"/><circle class="cls-10" cx="974.34" cy="409.71" r="11.43"/><circle class="cls-6" cx="975.12" cy="408.16" r="11.43"/><path class="cls-13" d="M1127.21,378.32c.45,4.89-3.26,9.65-2.18,14.44.24,1,.68,2,.84,3,.44,2.85-1.25,5.54-2.87,7.92l-13.93,20.44a13,13,0,0,1-2,2.45c-2.66,2.37-6.65,2.13-10.15,2.83a17.36,17.36,0,0,0-6.8,3,.44.44,0,0,0-.07.6,5.84,5.84,0,0,0,5.06,2.37c.37.49,0,1.19-.53,1.54-.75.53-1.77.66-1.92,1.92a2.1,2.1,0,0,0,.25,1.28,4,4,0,0,0,2.44,1.7c4.82,1.47,10-1.12,13.64-4.64s6.19-8,9.73-11.57c2-2,4.19-3.68,6.21-5.6,4-3.84,7.16-8.51,10.19-13.18a14.83,14.83,0,0,0,2.2-4.48c.38-1.64.2-3.28.63-4.86.57-2.08,2.08-3.72,3.34-5.46a18.1,18.1,0,0,0,3.8-11.75c-.33-4.19-2.93-8.33-6.88-9.76a6.12,6.12,0,0,0-3.85-.23,9.16,9.16,0,0,0-3.93,3.12l-2.65,3.06a7.15,7.15,0,0,0-1.55,2.33,2.45,2.45,0,0,0,.54,2.6Z"/><path class="cls-14" d="M1127.21,378.32c.45,4.89-3.26,9.65-2.18,14.44.24,1,.68,2,.84,3,.44,2.85-1.25,5.54-2.87,7.92l-13.93,20.44a13,13,0,0,1-2,2.45c-2.66,2.37-6.65,2.13-10.15,2.83a17.36,17.36,0,0,0-6.8,3,.44.44,0,0,0-.07.6,5.84,5.84,0,0,0,5.06,2.37c.37.49,0,1.19-.53,1.54-.75.53-1.77.66-1.92,1.92a2.1,2.1,0,0,0,.25,1.28,4,4,0,0,0,2.44,1.7c4.82,1.47,10-1.12,13.64-4.64s6.19-8,9.73-11.57c2-2,4.19-3.68,6.21-5.6,4-3.84,7.16-8.51,10.19-13.18a14.83,14.83,0,0,0,2.2-4.48c.38-1.64.2-3.28.63-4.86.57-2.08,2.08-3.72,3.34-5.46a18.1,18.1,0,0,0,3.8-11.75c-.33-4.19-2.93-8.33-6.88-9.76a6.12,6.12,0,0,0-3.85-.23,9.16,9.16,0,0,0-3.93,3.12l-2.65,3.06a7.15,7.15,0,0,0-1.55,2.33,2.45,2.45,0,0,0,.54,2.6Z"/><path class="cls-15" d="M1137.75,504.34c-3,1.86-6.83,2-10.37,1.54-.57-.07-1.24-.11-1.59.33-.53.63.09,1.59.74,2.09a15.32,15.32,0,0,0,7.12,2.92,46.25,46.25,0,0,0,7,.47,118.31,118.31,0,0,0,19-.7,2.65,2.65,0,0,0,1.07-.31,1.94,1.94,0,0,0,.78-1.19,4.75,4.75,0,0,0-1.65-4.53,13.69,13.69,0,0,0-4.44-2.38l-5.53-2.16c-1.29-.5-3.37-1.84-4.78-1.73C1142.44,498.88,1139.94,503.05,1137.75,504.34Z"/><path class="cls-14" d="M1137.75,504.34c-3,1.86-6.83,2-10.37,1.54-.57-.07-1.24-.11-1.59.33-.53.63.09,1.59.74,2.09a15.32,15.32,0,0,0,7.12,2.92,46.25,46.25,0,0,0,7,.47,118.31,118.31,0,0,0,19-.7,2.65,2.65,0,0,0,1.07-.31,1.94,1.94,0,0,0,.78-1.19,4.75,4.75,0,0,0-1.65-4.53,13.69,13.69,0,0,0-4.44-2.38l-5.53-2.16c-1.29-.5-3.37-1.84-4.78-1.73C1142.44,498.88,1139.94,503.05,1137.75,504.34Z"/><path class="cls-8" d="M1141.62,431c-2.3,3.06-4.68,6.6-4.11,10.39.3,2,1.45,3.84,2.29,5.73a40.54,40.54,0,0,1,2.31,8.05c.87,4,1.73,8,2.26,12.1.6,4.6-2.22,17.9-2.48,22.53a4.8,4.8,0,0,1-1,3.13c-.3.32-.7.57-.84,1a1.68,1.68,0,0,0,.18,1.16,12.84,12.84,0,0,0,6.91,6.35c3,1.24,10.1,3.39,13.33,3.5a2.67,2.67,0,0,0,1.25-.16,2.43,2.43,0,0,0,1-1.11c2.31-4.42.09-20.15.12-25.14,0-4.16,1-8.29.84-12.45-.15-3.34-1.07-6.6-1.37-9.93-.53-5.45.47-10.93,1.47-16.32.77-4.14,1.54-8.27,2.52-12.35a23.62,23.62,0,0,1,2.66-7.17c1.06-1.72,2.56-3.16,3.8-4.79a21.63,21.63,0,0,0,4.25-15.81c-.08-.53-8,2-8.67,2.31a27,27,0,0,0-7.73,5c-1.83,1.74-3.27,4.07-4.87,6q-3.39,4.14-6.71,8.34Q1145.24,426.1,1141.62,431Z"/><path class="cls-14" d="M1141.62,430.77c-2.3,3.07-4.68,6.61-4.11,10.39.3,2,1.45,3.85,2.29,5.73a40.63,40.63,0,0,1,2.31,8.06c.87,4,1.73,8,2.26,12.09.6,4.61-2.22,17.91-2.48,22.54a4.82,4.82,0,0,1-1,3.13c-.3.31-.7.56-.84,1a1.7,1.7,0,0,0,.18,1.17,13,13,0,0,0,6.91,6.38c3,1.27,10.1,2.38,13.33,2.49a2.56,2.56,0,0,0,1.25-.17,2.36,2.36,0,0,0,1-1.1c2.31-4.42.09-19.14.12-24.13,0-4.17,1-8.3.84-12.46-.15-3.34-1.07-6.6-1.37-9.92-.53-5.46.47-10.94,1.47-16.33.77-4.13,1.54-8.27,2.52-12.35a23.62,23.62,0,0,1,2.66-7.17c1.06-1.72,2.56-3.16,3.8-4.79A21.62,21.62,0,0,0,1177,399.5c-.08-.53-8,2-8.67,2.31a27.22,27.22,0,0,0-7.73,5c-1.83,1.73-3.27,4.06-4.87,6q-3.39,4.14-6.71,8.35Q1145.24,425.91,1141.62,430.77Z"/><circle class="cls-13" cx="1116.01" cy="350.63" r="12.9"/><path class="cls-13" d="M1127.63,350.09a16.68,16.68,0,0,0,10.71,7.47l-1,3.54c-1.68,6.07-3.57,12.49-8.26,16.7a7.76,7.76,0,0,0-1.3-6,22.91,22.91,0,0,0-4.38-4.58l-7.43-6.43a2.27,2.27,0,0,1-.53-.62,1.93,1.93,0,0,1,0-1.42c1-2.94,3.65-4.78,5.85-6.77a20.83,20.83,0,0,0,2.94-3.42C1125.74,346.4,1126.66,348.53,1127.63,350.09Z"/><path class="cls-8" d="M1099,337.66l-.29-2.42c2,.53,4-1.2,5.27-3s2.51-3.9,4.49-4.65c2.41-.91,5,.53,7.26,1.74a23,23,0,0,0,8.33,2.71,5.84,5.84,0,0,1,1.38.22c1.5.54,2.21,2.42,2.43,4.12s.16,3.52.89,5c.54,1.16,1.52,2,2.13,3.15,1.59,3.05,0,7.22,1.72,10.21l-4.14-3.79c-.38-.34-.91-.7-1.33-.41s-.35.74-.49,1.14a2.17,2.17,0,0,1-2.94,1.07,8.54,8.54,0,0,1-2.66-2.41,16.15,16.15,0,0,0-6.56-5,8.43,8.43,0,0,0-6.91.46c-1.93,1.09-3.34,3.63-5.7,3.72-3.25.12-4.6-5.92-6.1-8.3a2.92,2.92,0,0,0,.85-3.66C1096.87,337.54,1099,337.29,1099,337.66Z"/><path class="cls-9" d="M939.46,262.25a24.7,24.7,0,0,0-2.86,3,6,6,0,0,0-1.32,3.86,2.06,2.06,0,0,0,.37,1.13,1,1,0,0,0,1.07.33,1.49,1.49,0,0,0,.53-.47c.56-.68,1.16-1.32,1.78-1.94.23-.23.54-.46.84-.38a.91.91,0,0,1,.37.24,2.45,2.45,0,0,1,.74,1.17,2.72,2.72,0,0,1-.82,2.26,5.83,5.83,0,0,0-1.39,2.05.71.71,0,0,0,.42,1,5.93,5.93,0,0,0,5,.33c1.06-.43,2-1.17,3.1-1.55a7.61,7.61,0,0,0,1.37-.53A2.88,2.88,0,0,0,949.9,271a7.65,7.65,0,0,0,.08-2.24,25.56,25.56,0,0,0-1.83-8.41,1,1,0,0,0-.31-.45.9.9,0,0,0-.53-.14c-1.36-.15-3.59-.84-4.91-.34a3.58,3.58,0,0,0-1.16,1C941,260.67,939.46,261.89,939.46,262.25Z"/><path class="cls-8" d="M939,261.05c0-1.3-1.59-4.43.94-4.64,0-1.39-2-2.25-1.59-3.72.12-.49.53-.89.58-1.39.16-1.42-2.4-2.19-2-3.55.16-.53.73-.84.85-1.36.28-1.23-1.91-1.78-2-3,0-.42.24-.82.21-1.25s-.46-.93-.71-1.4c-.67-1.18-.34-3-1.55-3.63.8.07,1.06-1.12.73-1.85s-1-1.36-1-2.16a3.32,3.32,0,0,0,0-.89c-.22-.77-1.49-.84-1.71-1.59a8.42,8.42,0,0,1,0-.87,1.67,1.67,0,0,0-1.28-1.16,5,5,0,0,1-1.72-.61c-.37-.28-.8-.75-1.2-.53-.15.09-.22.26-.33.39-.48.56-1.4.31-2-.1a8.2,8.2,0,0,1-3-5.48c-.38-2.11-.37-4.29-.84-6.37a14.12,14.12,0,0,0-.57-1.92,9.92,9.92,0,0,1-.9-1.9c-.09-1.22,2.44-.39,3.4-.27a14.49,14.49,0,0,1,2.76.54,29.33,29.33,0,0,1,2.82,1.23c3.84,1.7,8.47,1.91,11.55,4.76,1,.93,1.88,2.16,3.19,2.58a13.45,13.45,0,0,1,1.79.47c1.46.68,1.69,2.62,2.49,4a7.8,7.8,0,0,1,.65,1.16,4.48,4.48,0,0,1,.21,1.49l.12,3.69a135.8,135.8,0,0,1-.3,18.49c-.21,2-.53,4.11.07,6.05.16.53.38,1,.53,1.57a9.46,9.46,0,0,1,.2,1.91l.09,2.39a.83.83,0,0,1-.12.53.74.74,0,0,1-.64.15c-3.33-.29-6.69-2.16-9.82-1Z"/><ellipse class="cls-4" cx="1090.63" cy="438.74" rx="39.31" ry="5.68"/><path class="cls-16" d="M1124.45,439c-.69-3-1.12-5.56-1.12-5.56a11.43,11.43,0,0,0-1.29-5.64V427h0v-6a21.35,21.35,0,0,1,1.51-3.12c1.06-1.87,0-8.72,0-8.72s-4-9.67-3-15.81-8.15-27.23-8.15-27.23a26.66,26.66,0,0,1,.85-6,4.46,4.46,0,0,0,.12-1.26v-.11c-.14-4-3.34-11.62-3.34-11.62l.43-14.45s2-8.51-1.28-20c-1.17-4-1.91-7.19-2.39-9.65,0-.28-.1-.53-.14-.8,6.85-1.07,12.08-1.92,12.08-1.92s-4-16.63-6.66-19.54-4.83-12.06-4.83-12.06-1.4-11.74.86-15.18,2.58-9.35,2.58-9.35,5.15-3.72,5.8-5.41a27.44,27.44,0,0,0,1.72-7.37c0-2-.65-3.72-.43-4.79s-1.51-5-.65-6.86a5,5,0,0,0,.34-1.8v0h0a24.9,24.9,0,0,0-.45-4.88,13.85,13.85,0,0,0-5.1-2.73l-.11-.45-.3-1.17-.5-.29V208l0-1.69.81-3.79c1.59-6.61-7.22-7.59-7.22-7.59a4.71,4.71,0,0,0-2.5-2.19c-1.77-.62-.29,9.93.53,10.63a42,42,0,0,1,3.48,5.44h0l.14.27a3.28,3.28,0,0,0-.4.43l.34,2.29.05.35a9.29,9.29,0,0,0-1.41,2.39,5.2,5.2,0,0,1,1.29,3.72,12.22,12.22,0,0,0,.53,4.58c-.09-.12-1.22-1.34-2.36-1s-4.29,1.25-4.29,1.25-2.36.41-2.13.93-1.59,2.81-1.59,2.81l-6.35-6c-.06-.18-.13-.36-.18-.53a15.12,15.12,0,0,1-.54-2.66,12.94,12.94,0,0,0,2-.64,4.34,4.34,0,0,0,1.76-1.13,6.84,6.84,0,0,0,1-2.73,40.35,40.35,0,0,1,2.36-5.25,17,17,0,0,0,1.19-9.45,6.1,6.1,0,0,0-1-2.77c-1-1.42-2.92-2-4.28-3.14s-2.25-2.88-3.84-3.72a7.61,7.61,0,0,0-4.82-.41,25.85,25.85,0,0,0-9,3.27,4.71,4.71,0,0,1-3,1,4,4,0,0,1-2.17-1.6l0-.08-.07-.09a11.31,11.31,0,0,0-1,4.75,6.36,6.36,0,0,0,0,.77v.48h0a1.24,1.24,0,0,1,0,.33,2.47,2.47,0,0,1-.6.86,6.24,6.24,0,0,0-.53.71.67.67,0,0,1,.09-.26,3.67,3.67,0,0,0-.66,2,2.06,2.06,0,0,0,.47,1.43,6.89,6.89,0,0,0,1,.83,11.8,11.8,0,0,0-.19,2.13,12.28,12.28,0,0,0,6,10.48c.08.17.15.35.22.53a15.17,15.17,0,0,1,1.15,6.91,4.61,4.61,0,0,1-.07.5c0,.16-.16.17-.23.26h0s-10.49.11-13-2.12-6.22,5.46-6.22,5.46-3.76.72-4.52,0-5.15-.11-5.15-.11a9.49,9.49,0,0,0-6.55-2.39,19.47,19.47,0,0,0-4.78-2.66h0l-.12,0h0a5.47,5.47,0,0,0-2.37-.3s-5.15-4.25-6.66-6.54-8.66-10.78-8.69-10.81v-.41l-.08-1.24a4.62,4.62,0,0,1-.65.06c0-.13-.09-.27-.14-.43a23.58,23.58,0,0,0-1.52-3.5s0-1.55.45-2-.18-6.1-.18-6.1-4.65-10.86-8.81-2.76c0,0-7.87,5.25-1.27,11.36,0,0,2.66,1.28,3,2.29.25.65,1.14,2.48,1.74,3.72l.27.53-.07.06.09,1,0,.4c-1.25.7-2.09,1.4-1.89,1.93a11.33,11.33,0,0,1,.75,2.81s9.14,11.44,10.32,16.32c0,0,24.48,14.55,32.53,15.59L1050.2,251a58.74,58.74,0,0,0-.32,5.93c.11,1.56-1,8.63-1,8.63s-1.39,10.39-2.57,11.85-1,7.69-1,7.69a52,52,0,0,1-1.6,8.84,22.48,22.48,0,0,0-.32,8.83s-4.08,9.36,5.69,3c0,0,4.79-.3,10.32-.49v.53c0,.71,0,1.48,0,2.29-.08,5.36-.11,12.76.14,18.33.43,9.87,3.43,29.42,3.43,29.42v9.84a13.17,13.17,0,0,0-.28,2.8,18.3,18.3,0,0,0,2.65,9.83l.76,6.55s1.76,4.31,1.8,6.91a4.38,4.38,0,0,1-.08.62,3.76,3.76,0,0,0-.08,1c-.1,3,1.69,10.1,1.69,10.1s.1,7.17,1.18,7.59c.92.36-1.23,4.13-1.87,5.22a1.55,1.55,0,0,1,0-.21l-.13.22a5.1,5.1,0,0,0-.33,1.82,2.58,2.58,0,0,0,1.19,2.51c2,1.25,3.13,2.29,1.4,2.7-.64.1-1.27.24-1.89.4,0-.08-.07-.16-.09-.24a1.15,1.15,0,0,0-.71,1.26,5.34,5.34,0,0,0,.63,2.41,26.53,26.53,0,0,0,2.91,5.32l.82-.09a4.13,4.13,0,0,1-.47.88,3.49,3.49,0,0,1-1.22,1.07,3.67,3.67,0,0,1-1.47.5,4.16,4.16,0,0,0-3,1.48c-1.06,1.39-1.74,3.27.37,4.93l7.68,2.66s13.22,1.72,12.52-1.25-1.13-5.56-1.13-5.56a11.78,11.78,0,0,0-1.06-5.26,8.81,8.81,0,0,0-.47-.77l.47-.05s1-6.55,2.25-7.8c.3-.28.37-.53.3-.68.13-.35-.21-.56-.64-.68l-.1.26a6.88,6.88,0,0,0-1.28-.15s-.43-3.42,1-4.67a1.3,1.3,0,0,0,.27-1,5.51,5.51,0,0,0-.15-1.4.22.22,0,0,1,0,.08,50.4,50.4,0,0,0-3.08-8.06s-.1-3.11.76-4.36-.12-16.95-.12-16.95.33-7.58-.64-11.12,1.18-7.69,1.18-7.69v-.28l-.12-1.2v.08c-.22-2-.63-5.65-.93-7.33-.43-2.39.11-13.82.11-13.82l1.93-4.89,3.44,8.42,3.65,11.23a9.56,9.56,0,0,1,1.85,4.78v.35a6.28,6.28,0,0,0,0,.75,6.65,6.65,0,0,0,1.11,4s1,5.31,2.47,6.64,1.5,3.95,1.5,3.95,1.83,7.7,2.66,9c.72,1.14.76,4.25.76,5.22h0V394s.25,2.75.24,5.06v.77a7.9,7.9,0,0,1-.22,1.87l0,.1a1.58,1.58,0,0,1,0-.38,19.68,19.68,0,0,0-.53,4.78c0,2.76.37,6,2,8,2.9,3.33,4.72,2.91,4.72,2.91s-1.39,4.16-3.11,5a.78.78,0,0,0-.18.11,1.49,1.49,0,1,0-.58,1.31,11.14,11.14,0,0,0,2.13,6.16,3.44,3.44,0,0,0,1.45.85l-.27.17-.59.28a3.36,3.36,0,0,1-.88.23,4.12,4.12,0,0,0-3,1.47c-1.06,1.39-1.74,3.27.37,4.93l7.68,2.66S1125.14,442,1124.45,439Z"/><path class="cls-17" d="M1074,443.92l-7.44-2.65c-2.06-1.66-1.4-3.55-.37-4.94a4,4,0,0,1,3-1.47,3.62,3.62,0,0,0,1.42-.51,3.53,3.53,0,0,0,1.18-1.06,5.52,5.52,0,0,0,.84-2.88s8.17-2.39,10.4,0a6.21,6.21,0,0,1,1,1.45,12.2,12.2,0,0,1,1.06,5.26s.42,2.59,1.09,5.56S1074,443.92,1074,443.92Z"/><path class="cls-17" d="M1110.38,440.26l-7.44-2.66c-2-1.66-1.4-3.55-.36-4.93a3.94,3.94,0,0,1,2.94-1.48,2.81,2.81,0,0,0,.85-.22,5.07,5.07,0,0,0,.57-.29c2.08-1.14,2-3.95,2-3.95s8.16-2.39,10.4,0a5.86,5.86,0,0,1,.78,1.07,11.74,11.74,0,0,1,1.24,5.64s.42,2.6,1.06,5.56S1110.38,440.26,1110.38,440.26Z"/><path class="cls-10" d="M1083,430.41a5.73,5.73,0,0,1,1,1.45h0l-12.22,1.42a5.52,5.52,0,0,0,.84-2.88S1080.76,428,1083,430.41Z"/><path class="cls-10" d="M1120.16,427.81v2.29c-1.91,3.13-11.11,2.44-13.78.88a6.27,6.27,0,0,0,.58-.29c2.07-1.14,2-3.95,2-3.95s8.16-2.39,10.4,0A6.23,6.23,0,0,1,1120.16,427.81Z"/><path class="cls-8" d="M1121.61,417.93a20.07,20.07,0,0,0-1.45,3.12v8.21c-2.09,3.43-12.89,2.29-14.35.42s-3-6.74-1.35-7.59,3-5,3-5-1.77.42-4.58-2.91-2-10.7-1.45-12.47,0-7.69,0-7.69.1-4.16-.72-5.51-2.6-9-2.6-9,0-2.6-1.46-4-2.39-6.65-2.39-6.65a6.85,6.85,0,0,1-1-4.47c.31-2.6-1.77-5.41-1.77-5.41l-3.53-11.23-3.33-8.42-1.87,4.89s-.53,11.43-.1,13.82,1.06,8.73,1.06,8.73-2.08,4.16-1.14,7.69.59,11.13.59,11.13.94,15.69.1,16.94-.72,4.37-.72,4.37,4.25,9.14,2.91,10.39-.94,4.68-.94,4.68,2.91,0,1.67,1.25S1084,431,1084,431l-12.57,1.48a25.91,25.91,0,0,1-2.81-5.32c-1.66-3.86.31-3.43,2-3.85s.62-1.45-1.36-2.7-.83-4.05-.83-4.05,3-5.09,2-5.51-1.15-7.59-1.15-7.59-2.08-8.5-1.55-10.81-1.67-7.79-1.67-7.79l-.73-6.55A18,18,0,0,1,1063,366v-10.1s-2.91-19.54-3.33-29.42c-.26-6.32-.19-14.95-.11-20.34.06-3,.11-5,.11-5l44.9-4.68a37.51,37.51,0,0,0,.82,6.67c.46,2.47,1.18,5.66,2.3,9.66,3.22,11.43,1.25,19.95,1.25,19.95l-.42,14.45s4,9.66,3.12,13a28,28,0,0,0-.84,6s8.84,21.1,7.9,27.23,2.91,15.81,2.91,15.81S1122.65,416.06,1121.61,417.93Z"/><path class="cls-14" d="M1095.94,363.78l13.67-1.82S1101.86,369.86,1095.94,363.78Z"/><path class="cls-10" d="M1107.63,348.6s.47,4.84-2.49,6.66C1105.14,355.26,1110.44,354.43,1107.63,348.6Z"/><path class="cls-10" d="M1106.79,333.22s-11.43,9.41-15.58,8.63S1106.79,333.22,1106.79,333.22Z"/><path class="cls-10" d="M1079,368.19s-8.68,2-8.94,5.46S1079,368.19,1079,368.19Z"/><path class="cls-14" d="M1080.9,411.54s-12.26,2.29-8.78,3.85a60,60,0,0,0,9.2,2.8S1085.28,418.4,1080.9,411.54Z"/><g class="cls-18"><path d="M1069.64,417.86a2.44,2.44,0,0,1-1.12-1.77l-.13.22s-1.14,2.8.84,4.05l.64.42c.36-.07.76-.12,1.13-.22C1072.68,420.15,1071.62,419.11,1069.64,417.86Z"/><path d="M1085.44,417c.34-.31.33-1.11.12-2.13a6,6,0,0,0-.69,3A2.43,2.43,0,0,1,1085.44,417Z"/><path d="M1083.55,365.32a14.26,14.26,0,0,0-.83,3.82,16.52,16.52,0,0,1,1-2.63Z"/><path d="M1111.64,359.86a4.76,4.76,0,0,0,.11-1.13c-.15.77-.26,1.49-.34,2.12C1111.48,360.53,1111.55,360.22,1111.64,359.86Z"/><path d="M1083.26,402.27a6.52,6.52,0,0,0,.31-2.31,7.74,7.74,0,0,0-.6,2.92A2.84,2.84,0,0,1,1083.26,402.27Z"/><path d="M1085.81,421.88a41.91,41.91,0,0,0-1.43,6.37l-12.57,1.46a26.31,26.31,0,0,1-2.81-5.32c-.13-.3-.25-.6-.36-.91-.75.34-1.06,1.12-.06,3.4a26.3,26.3,0,0,0,2.82,5.32l12.57-1.46s.93-6.55,2.18-7.8C1086.78,422.34,1086.39,422,1085.81,421.88Z"/><path d="M1069.23,403.21s.1,7.17,1.14,7.58h0c.53-1.18.88-2.31.41-2.49-1.06-.42-1.14-7.59-1.14-7.59s-2.08-8.51-1.56-10.81-1.66-7.8-1.66-7.8l-.73-6.55a18,18,0,0,1-2.29-12.37v-10.1s-2.91-19.54-3.32-29.41c-.27-6.33-.2-15-.11-20.34,0-1,0-1.84,0-2.56l-.36,0s-.06,2-.11,5c-.08,5.38-.16,14,.11,20.33.42,9.88,3.32,29.42,3.32,29.42v10.1a18.1,18.1,0,0,0,2.29,12.37l.73,6.55s2.18,5.5,1.66,7.79S1069.23,403.21,1069.23,403.21Z"/><path d="M1106.23,426.9a12.09,12.09,0,0,1-2-4.93c-1.28,1.16.19,5.65,1.59,7.44s12.27,3,14.35-.42v-2C1117.35,429.79,1107.6,428.67,1106.23,426.9Z"/><path d="M1122,415.16a21.09,21.09,0,0,0-1.46,3.12v1.47a22.32,22.32,0,0,1,1.07-2.08,6.5,6.5,0,0,0,.45-2.58Z"/><path d="M1106.87,416.8a20.44,20.44,0,0,0,1-2.47s-1.77.41-4.58-2.91c-2-2.42-2.16-7-1.87-10-.53,1.77-1.35,9.15,1.45,12.47C1104.74,416.09,1106.13,416.66,1106.87,416.8Z"/><path d="M1101.45,393.75a57.55,57.55,0,0,1,.21,6.16,7.43,7.43,0,0,1,.21-1c.53-1.77,0-7.69,0-7.69s.1-4.17-.73-5.52-2.57-9-2.57-9,0-2.6-1.46-3.95-2.39-6.66-2.39-6.66a6.78,6.78,0,0,1-1.06-4.47c.31-2.6-1.77-5.4-1.77-5.4L1088.36,345l-3.33-8.42-1.88,4.89s0,.62-.06,1.6l1.52-4,3.33,8.4,3.53,11.23s2.08,2.8,1.77,5.4a6.84,6.84,0,0,0,1.06,4.47s.94,5.32,2.39,6.66,1.45,3.95,1.45,3.95,1.77,7.69,2.6,9S1101.45,393.75,1101.45,393.75Z"/></g><path class="cls-19" d="M1110.18,202.51l-.79,3.79,0,1.7,0,1.24-4.33.45-.49-.9h0a39.47,39.47,0,0,0-3.36-5.45c-.8-.67-2.23-11.22-.53-10.59a4.55,4.55,0,0,1,2.41,2.18S1111.71,195.91,1110.18,202.51Z"/><path class="cls-10" d="M1109.47,209.24l-4.33.45-.49-.9h0a3.83,3.83,0,0,1,4.79-.79Z"/><path class="cls-6" d="M1110.57,211.3l-5.72,1.32-.12-.85-.33-2.29a3.94,3.94,0,0,1,5.54-.76l.29,1.17Z"/><path class="cls-19" d="M1017.93,202.92l-6.11,3.28-.53-1.15c-.58-1.22-1.45-3.05-1.69-3.72-.36-1-2.9-2.29-2.9-2.29-6.38-6.1,1.22-11.35,1.22-11.35,4-8.11,8.5,2.75,8.5,2.75s.63,5.72.19,6.11-.44,1.95-.44,1.95a24.31,24.31,0,0,1,1.47,3.49C1017.83,202.57,1017.93,202.92,1017.93,202.92Z"/><path class="cls-10" d="M1017.93,202.92l-6.11,3.28-.53-1.15c.86-.72,3.92-3.19,4.92-3.09a7.79,7.79,0,0,0,1.45,0Z"/><path class="cls-6" d="M1018.55,204.77l-6.86,3.38-.14-1.47-.1-1s4-3.41,5.15-3.28a6,6,0,0,0,1.79,0l.08,1.24Z"/><path class="cls-19" d="M1093.54,227.72s-29.91,3.37-24.32,1.56c3.89-1.27,5.44-3.72,5.76-6.49a15.55,15.55,0,0,0-1.11-6.91,30.37,30.37,0,0,0-2.65-5.4s22.85-12.58,18.29-1.15a18.12,18.12,0,0,0-1.3,5.42,15.21,15.21,0,0,0,.59,5.49A16.33,16.33,0,0,0,1093.54,227.72Z"/><path class="cls-10" d="M1089.49,209.32a18.68,18.68,0,0,0-1.3,5.41c-2.15,1.82-4.51,1.7-7.54,1.7-2.33,0-4.92.56-6.78-.56a30.13,30.13,0,0,0-2.65-5.41S1094.07,197.89,1089.49,209.32Z"/><circle class="cls-19" cx="1080.24" cy="204.85" r="12.37"/><path class="cls-10" d="M1093.54,227.72s-29.91,3.37-24.32,1.56c3.89-1.27,5.44-3.72,5.76-6.49,1.49-1.59,4.49-2.78,6.38-3.39a8.88,8.88,0,0,1,5.42-.09,7.57,7.57,0,0,1,2,.91A16.42,16.42,0,0,0,1093.54,227.72Z"/><path class="cls-10" d="M1110.57,211.3l-5.72,1.32-.12-.85a5,5,0,0,1,5.5-1.88Z"/><path class="cls-10" d="M1018.55,204.77l-6.86,3.38-.14-1.47a49.6,49.6,0,0,1,6.91-3.07Z"/><path class="cls-10" d="M1105.38,303.09c-11.6,1.85-28.07,4.21-30.69,3.42-2.17-.66-9.1-.59-15.14-.39.06-3,.11-5,.11-5l44.9-4.68A37.51,37.51,0,0,0,1105.38,303.09Z"/><path class="cls-15" d="M1116.93,300.37s-38.15,6.55-42.24,5.32-25.11.1-25.11.1c-9.46,6.34-5.51-3-5.51-3a23.26,23.26,0,0,1,.31-8.83,54.22,54.22,0,0,0,1.57-8.84s-.21-6.24.93-7.7,2.5-11.85,2.5-11.85,1-7.07.94-8.62.31-5.93.31-5.93l1.35-7.28c-7.8-1-31.5-15.59-31.5-15.59-1.14-4.88-10-16.31-10-16.31a12.36,12.36,0,0,0-.73-2.81c-.62-1.66,8.73-5,8.73-5s7,8.5,8.42,10.81,6.44,6.55,6.44,6.55a5,5,0,0,1,2.29.3l.12,0h0a18.5,18.5,0,0,1,4.65,2.66,9.06,9.06,0,0,1,6.34,2.39s4.25-.62,5,.1,4.37,0,4.37,0,3.63-7.69,6-5.45,12.54,2.12,12.54,2.12c1.35-1.8,4.64-3.08,6.7-3.72a9,9,0,0,1,5.42-.09,7,7,0,0,1,2.13,1.06l6.17,6s1.76-2.29,1.55-2.81,2.08-.93,2.08-.93,3-.94,4.16-1.25,2.19.92,2.29,1a12.49,12.49,0,0,1-.54-4.57,5.4,5.4,0,0,0-1.25-3.73c3.64-8.94,11.85-1.45,11.85-1.45s.94,4.88.11,6.75.83,5.82.62,6.87.42,2.8.42,4.78a29.3,29.3,0,0,1-1.66,7.38c-.6,1.66-5.62,5.4-5.62,5.4s-.31,5.93-2.49,9.36-.82,15.15-.82,15.15,2.08,9.15,4.68,12.06S1116.93,300.37,1116.93,300.37Z"/><path class="cls-10" d="M1061.32,232s-1.14-3.43-2.18-3.72a23.85,23.85,0,0,1-3-1.35l.67-1.28s3.9,1.06,4.52,2.21S1061.32,232,1061.32,232Z"/><path class="cls-10" d="M1040.43,224.39c-.21,1.07-9.46,2-9.46,2l4.68-4.68h0l.11,0h0A18.66,18.66,0,0,1,1040.43,224.39Z"/><circle class="cls-20" cx="1013.66" cy="210.13" r="0.83"/><circle class="cls-20" cx="1014.73" cy="211.79" r="0.83"/><circle class="cls-20" cx="1015.77" cy="213.33" r="0.83"/><circle class="cls-20" cx="1016.86" cy="214.98" r="0.83"/><circle class="cls-20" cx="1114.84" cy="214.89" r="0.68"/><circle class="cls-20" cx="1114.94" cy="216.43" r="0.68"/><circle class="cls-20" cx="1115.03" cy="217.96" r="0.68"/><path class="cls-10" d="M1061.36,260.15c-.1-.12,23.34,29.46,41.52,12.37C1102.9,272.52,1074.16,276.42,1061.36,260.15Z"/><path class="cls-10" d="M1047.91,275.53s14,.38,15.49,4.42v4.2a2.69,2.69,0,0,1-2.61,0c-1.41-.77-9.89-5.08-12.88-3Z"/><path class="cls-15" d="M1048.17,275.53s13.41.37,14.82,4.21v4a2.58,2.58,0,0,1-2.5,0c-1.35-.72-9.46-4.83-12.32-2.85Z"/><path class="cls-10" d="M1055.57,245.08a44.88,44.88,0,0,0,5.44,9.33,36.45,36.45,0,0,0,8.5,8.22S1055.8,247,1055.57,245.08Z"/><path class="cls-10" d="M1051,228.79s2.34,10.1,8.37,13.53Z"/><path class="cls-10" d="M1047.39,229.81c-.05-.18-2.07,8,7.77,12.51C1055.16,242.32,1051,240.9,1047.39,229.81Z"/><path class="cls-10" d="M1108.62,223c-.16,0,4.86,3.19,6.22,4.68C1114.84,227.72,1111.58,222.83,1108.62,223Z"/><path class="cls-17" d="M1076.9,216.06a2,2,0,0,0,2,1.94h.16c3.77.24,7.7.4,11.17-1.06a4.24,4.24,0,0,0,1.7-1.13,7.11,7.11,0,0,0,1-2.73,38.69,38.69,0,0,1,2.28-5.26,17.6,17.6,0,0,0,1.22-9.43,6.35,6.35,0,0,0-.94-2.76c-1-1.43-2.83-2-4.15-3.14s-2.17-2.88-3.72-3.73a7.16,7.16,0,0,0-4.67-.41,24.3,24.3,0,0,0-8.7,3.27,4.49,4.49,0,0,1-2.91,1,3.85,3.85,0,0,1-2.13-1.65,11.52,11.52,0,0,0-.89,5.4,2.2,2.2,0,0,1,0,.81,2.4,2.4,0,0,1-.57.86c-.93,1.06-1.51,2.79-.59,3.88.39.48,1,.74,1.4,1.22.7.87.46,2.13.45,3.23a1.64,1.64,0,0,0,.27,1.1,1.59,1.59,0,0,0,1.53.36,4.22,4.22,0,0,1,1.62-.15,2.74,2.74,0,0,1,1.42,1.06C1075.48,211,1076.16,213.4,1076.9,216.06Z"/><g class="cls-21"><path d="M1092.33,214.86a4.24,4.24,0,0,1-1.7,1.13c-3.49,1.45-7.41,1.29-11.16,1.06a2.48,2.48,0,0,1-1.17-.26,2.61,2.61,0,0,1-1-1.67c-.73-2.66-1.4-5.1-3.15-7.32a2.73,2.73,0,0,0-1.41-1.09,4.28,4.28,0,0,0-1.63.16,1.59,1.59,0,0,1-1.52-.36,1.65,1.65,0,0,1-.28-1.1c0-1.11.25-2.36-.45-3.23-.38-.48-1-.74-1.4-1.22a2.43,2.43,0,0,1-.24-2.48,2.82,2.82,0,0,0-.17,3.31c.39.48,1,.74,1.4,1.22.69.87.46,2.13.45,3.23a1.3,1.3,0,0,0,1.8,1.46,4,4,0,0,1,1.62-.15,2.74,2.74,0,0,1,1.42,1.06c1.74,2.22,2.42,4.65,3.15,7.32a2.67,2.67,0,0,0,.92,1.69,2.59,2.59,0,0,0,1.17.25c3.77.23,7.69.4,11.16-1.06a4.24,4.24,0,0,0,1.7-1.13,3.43,3.43,0,0,0,.53-1A.24.24,0,0,1,1092.33,214.86Z"/><path d="M1068.27,196.84a1.77,1.77,0,0,0,.38-.63,2.21,2.21,0,0,0,0-.81,11.54,11.54,0,0,1,.58-4.48l-.07-.08a11.45,11.45,0,0,0-.89,5.39A3.11,3.11,0,0,1,1068.27,196.84Z"/></g><path class="cls-10" d="M1074.69,223.56s15.45,2.05,16.84-.27Z"/><path class="cls-10" d="M1104.73,217.16s8.59,0,10.47,3.24Z"/><path class="cls-15" d="M1152.78,504.26a13.61,13.61,0,0,1-9.27,3.47c-.87,0-2.08.16-2.09,1a1.46,1.46,0,0,0,.26.72,8.55,8.55,0,0,0,4.78,3.75,16.78,16.78,0,0,0,5.79.37l5.66-.29c1.06-.06,2.13-.11,3.19-.25s2.22-.35,3.33-.53a43.75,43.75,0,0,1,8.25-.38,2.5,2.5,0,0,0,2-.53c.43-.53.21-1.55,0-2.35-.34-1.64,0-3.36-.31-5-.53-2.89-3-5.11-5.78-6.15-2.55-1-7.07-2.08-9.48-.47S1155.08,502.17,1152.78,504.26Z"/><path class="cls-8" d="M1158.41,407.39c.5,2.37,2.8,4.19,2.86,6.61.06,1.95-1.33,3.58-2.33,5.25a35.19,35.19,0,0,0-2.37,5.37,82,82,0,0,1-7,13.88c-1.33,2.12-2.81,4.39-2.51,6.86a10.19,10.19,0,0,0,1.21,3.29l4,7.92a22.64,22.64,0,0,1,2,5c.34,1.5.37,3.06.58,4.59.62,4.86,2.9,9.75,1.55,14.46-.11.4-.53.89-.85.61a15.14,15.14,0,0,1,2.27,7.73c0,1.46-.5,3,0,4.35a4.65,4.65,0,0,1,.62,1.71,9.3,9.3,0,0,1-.23,1.17,2.61,2.61,0,0,0,2,2.42c1.07.35,2.23.33,3.31.65,2.08.62,3.56,2.41,5.32,3.65a11.34,11.34,0,0,0,6.12,2,1.56,1.56,0,0,0,.9-.18,1.46,1.46,0,0,0,.5-1.1,6.06,6.06,0,0,0-2.19-5.28,2.45,2.45,0,0,1-.81-.85,2,2,0,0,1-.07-.95,71.44,71.44,0,0,0-.24-13.08,20,20,0,0,1-.2-4.16,17,17,0,0,0,.33-3.46,19.39,19.39,0,0,0-1.06-3.32c-.62-2-.45-4.1-.53-6.17a54.35,54.35,0,0,0-1.75-10.63,8,8,0,0,0-1.66-3.83c-.82-.87-2.16-1.7-1.85-2.85a3.35,3.35,0,0,1,.76-1.14,4.53,4.53,0,0,0,.95-3.46,1.56,1.56,0,0,0,1.79-.84,28.05,28.05,0,0,0,14-16,5.31,5.31,0,0,1,.63-1.42,6.39,6.39,0,0,1,2.56-1.66c2.9-1.47,4.91-4.2,6.75-6.88a16.51,16.51,0,0,0,2.6-5,16.72,16.72,0,0,0,.36-3.6l.16-6.24a3.34,3.34,0,0,0-.11-1.22,3.07,3.07,0,0,0-.68-1,12,12,0,0,0-6.62-3.57c-1.7-.31-3.44-.25-5.16-.39-3.34-.28-6.64-1.31-10-1.07-5.25.39-9.92,4-12.39,8.67C1161.18,405.93,1160.27,407.36,1158.41,407.39Z"/><path class="cls-6" d="M1129.28,366.78a7,7,0,0,1-.38,2.84,2,2,0,0,1-2.34,1.2c.27-.61-.44-1.31-1.11-1.23a2.09,2.09,0,0,0-1.48,1.26,4.72,4.72,0,0,0-.42,2.89c.21,1.22.92,2.39.73,3.62-.15,1-.9,2-.5,3a4.91,4.91,0,0,0,1,1.16,3.24,3.24,0,0,1-.34,4.46l10.06.2c-.37,1.68.38,3.4,1.24,4.89a30.84,30.84,0,0,0,23,15,2,2,0,0,0-.72,2.73,1.54,1.54,0,0,0,.23.32,2.83,2.83,0,0,0,3.24.19,24.83,24.83,0,0,0,2.76-2.07,8.46,8.46,0,0,1,5.68-1.53c1.26.12,2.48.53,3.75.59,3.72.2,6.91-2.48,10.49-3.57,2.61-.81,5.57-.81,7.76-2.44a3.09,3.09,0,0,0,1.45-3,4.91,4.91,0,0,0-1.07-1.76,29.91,29.91,0,0,1-2.9-5.45,32.76,32.76,0,0,0-7.27-9.74,65,65,0,0,0-7.21-5.46,12.34,12.34,0,0,0-1.94-1.17,21.71,21.71,0,0,1-2.66-1.07c-1.18-.74-1.86-2.05-2.77-3.11-2-2.33-5-3.4-7.51-5.23-1.65-1.23-3.1-2.84-5.07-3.43-1-.29-2-.31-2.93-.6-2.17-.66-3.76-2.59-5.89-3.37-1.68-.62-3.54-.46-5.31-.68a12.43,12.43,0,0,1-5.56-2.11,6.41,6.41,0,0,0-1.77-1c-2.69-.82-2.91,4.2-3.19,5.93A58.36,58.36,0,0,0,1129.28,366.78Z"/><path class="cls-13" d="M1131.9,383.61c.46,4.9-3.24,9.64-2.16,14.44.22,1,.67,2,.82,3,.46,2.85-1.24,5.54-2.87,7.92l-13.92,20.44a13.08,13.08,0,0,1-2,2.46c-2.66,2.36-6.65,2.12-10.15,2.82a17.51,17.51,0,0,0-6.8,3,.44.44,0,0,0-.09.61,5.86,5.86,0,0,0,5.06,2.38c.36.48,0,1.19-.51,1.53-.74.54-1.77.66-1.92,1.93a2.14,2.14,0,0,0,.25,1.27,3.93,3.93,0,0,0,2.44,1.69c4.82,1.48,10-1.11,13.63-4.64s6.2-8,9.74-11.55c2-2,4.19-3.68,6.21-5.61,4-3.84,7.16-8.5,10.18-13.17a14.68,14.68,0,0,0,2.21-4.49c.38-1.63.2-3.29.63-4.86.57-2.07,2.08-3.72,3.34-5.46a18.09,18.09,0,0,0,3.8-11.75c-.33-4.2-2.93-8.33-6.88-9.76a6.22,6.22,0,0,0-3.86-.23,9.19,9.19,0,0,0-3.92,3.12l-2.66,3.05a7.33,7.33,0,0,0-1.49,2.35,2.44,2.44,0,0,0,.53,2.6Z"/><path class="cls-6" d="M1139,363.51c-1.83.1-3.84.28-5.13,1.59a7.48,7.48,0,0,0-1.3,2c-1.25,2.56-2.48,5.23-2.57,8.08-.07,2.27.59,4.5.93,6.75.29,1.87-.44,3.78-.57,5.67a39.56,39.56,0,0,0,7.32-2.82,24.57,24.57,0,0,1,4.29-2.22c2.18-.73,5.85.53,7.92,1.54.12-1.46-1-4-.86-5.46a5.89,5.89,0,0,1,.32-1.81,11.41,11.41,0,0,1,1.1-1.75,7.17,7.17,0,0,0-.64-8.38c-1.85-2.07-4.73-2.85-7.49-3.19a32.51,32.51,0,0,0-5.22-.18Z"/><ellipse class="cls-2" cx="719.28" cy="18.04" rx="18.5" ry="18.04"/></g></g></svg>