<svg xmlns="http://www.w3.org/2000/svg" viewBox="0 0 1366 472.75"><defs><style>.cls-1{fill:#5985c4;opacity:0.1;isolation:isolate;}</style></defs><title>BGPromo</title><g id="Layer_2" data-name="Layer 2"><g id="Illustration_2" data-name="Illustration 2"><ellipse class="cls-1" cx="239.85" cy="454.71" rx="18.5" ry="18.04"/><ellipse class="cls-1" cx="1008.38" cy="228.61" rx="18.5" ry="18.04"/><ellipse class="cls-1" cx="474.28" cy="412.06" rx="18.5" ry="18.04"/><ellipse class="cls-1" cx="474.47" cy="190.65" rx="31.01" ry="30.23"/><ellipse class="cls-1" cx="862.33" cy="48.16" rx="31.01" ry="30.23"/><ellipse class="cls-1" cx="846.08" cy="279.58" rx="31.01" ry="30.23"/><ellipse class="cls-1" cx="876.62" cy="394.06" rx="31.01" ry="30.23"/><path class="cls-1" d="M1366,71.32V287.75c-83.47,47.88-376,212.68-376,170.67,0-49,166-172.37,175-211.37s-84-133-84-188,121-89,121-22C1202,92.93,1325.14,77.86,1366,71.32Z"/><path class="cls-1" d="M361,204.75c0,155.32-142-50.86-142,154.41S87,409.11,43,409.11c-33.8,0-29.24-62.19-43-91.42V13.23c99.37-17,219-26.13,219,28C219,133.91,361,49.44,361,204.75Z"/></g></g></svg>